<svg xmlns="http://www.w3.org/2000/svg" xmlns:xlink="http://www.w3.org/1999/xlink" width="500" zoomAndPan="magnify" viewBox="0 0 375 374.999991" height="500" preserveAspectRatio="xMidYMid meet" version="1.0"><defs><g/><clipPath id="2bbf435681"><path d="M 76.386719 38 L 298.386719 38 L 298.386719 259.5 L 76.386719 259.5 Z M 76.386719 38 " clip-rule="nonzero"/></clipPath></defs><g clip-path="url(#2bbf435681)"><path fill="#0000FF" d="M 297.511719 255.324219 C 290.207031 250.574219 283.355469 245.355469 276.101562 239.828125 C 260.785156 228.15625 244.949219 216.085938 224.894531 209.113281 C 218.636719 206.9375 206.621094 204.273438 197.773438 202.441406 C 221.316406 195.027344 241.378906 176.730469 253.964844 165.242188 C 256.171875 163.222656 258.148438 161.417969 259.871094 159.925781 C 264.207031 156.164062 267.609375 152.644531 270.269531 149.300781 C 274.328125 151.777344 284.730469 158.089844 295.019531 163.96875 C 295.394531 164.1875 295.804688 164.289062 296.214844 164.289062 C 297.046875 164.289062 297.859375 163.851562 298.308594 163.074219 C 298.96875 161.917969 298.566406 160.445312 297.410156 159.785156 C 287.429688 154.082031 277.335938 147.96875 273.097656 145.378906 C 277.488281 138.378906 277.976562 132.222656 274.625 126.578125 C 272.261719 122.59375 269.898438 120.367188 268 119.085938 C 271.507812 114.785156 271.542969 109.726562 268.035156 103.71875 C 266.308594 100.769531 264.113281 97.722656 261.25 96.03125 C 262.789062 93.644531 263.421875 90.230469 262.90625 86.371094 C 262.238281 81.378906 259.523438 75.101562 253.894531 72.457031 C 253.113281 72.09375 252.203125 71.882812 251.234375 71.738281 C 252.8125 68.105469 253.476562 62.9375 250.246094 57.257812 C 243.839844 45.992188 228.3125 48.179688 217.324219 50.945312 C 214.433594 47.558594 206.296875 38.722656 199.503906 38.046875 C 195.019531 37.601562 189.761719 41.050781 187.398438 42.8125 C 178.632812 38.308594 171.078125 39.375 168.203125 40.070312 C 163.773438 41.148438 159.480469 44.390625 154.929688 47.824219 C 150.351562 51.28125 145.613281 54.855469 141.328125 55.515625 C 137.777344 56.0625 135.25 57.558594 133.808594 59.96875 C 132.933594 61.441406 132.636719 62.984375 132.59375 64.339844 C 128.839844 63.710938 122.996094 63.757812 118.300781 68.453125 C 114.664062 72.089844 110.613281 78.367188 111.164062 84.09375 C 111.292969 85.457031 111.710938 86.699219 112.335938 87.832031 C 109.496094 88.796875 107.066406 90.519531 105.292969 93.246094 C 101.289062 99.394531 99.859375 104.121094 100.792969 108.125 C 101.3125 110.371094 102.578125 112.320312 104.585938 114.035156 C 104.386719 114.207031 104.125 114.324219 103.949219 114.519531 C 100.546875 118.28125 98.820312 124.050781 99.742188 128.554688 C 99.996094 129.804688 100.496094 130.898438 101.128906 131.878906 C 94.753906 137.046875 94.5 145.480469 95.609375 150.734375 L 77.945312 162.378906 C 76.835938 163.109375 76.53125 164.605469 77.265625 165.71875 C 77.726562 166.421875 78.492188 166.800781 79.273438 166.800781 C 79.730469 166.800781 80.191406 166.671875 80.601562 166.402344 L 99.183594 154.15625 C 99.613281 153.984375 99.992188 153.730469 100.25 153.28125 C 100.273438 153.265625 102.15625 151.566406 109.953125 153.234375 C 115.1875 154.34375 119.566406 153.652344 122.996094 151.183594 C 126.191406 148.878906 127.753906 145.5625 128.519531 143.183594 C 131.039062 143.996094 133.351562 144.382812 135.339844 144.382812 C 138.015625 144.382812 140.160156 143.773438 141.640625 142.886719 C 143.53125 141.75 149.277344 135.382812 148.804688 128.875 C 148.730469 127.882812 148.484375 126.757812 147.953125 125.613281 C 150.375 125.0625 153.199219 123.679688 155.199219 120.316406 C 158.789062 114.300781 158.425781 108.769531 154.25 103.570312 C 161.664062 100.113281 163.054688 91.511719 162.648438 87.148438 C 162.519531 85.820312 161.304688 84.851562 160.027344 84.96875 C 158.699219 85.09375 157.722656 86.265625 157.847656 87.59375 C 157.855469 87.691406 158.65625 97.28125 151.207031 99.695312 C 151.015625 99.757812 150.863281 99.878906 150.699219 99.984375 C 149.230469 98.75 147.617188 97.523438 145.675781 96.324219 C 137 90.953125 126.386719 86.613281 117.796875 86.878906 C 116.757812 86.003906 116.089844 84.96875 115.960938 83.636719 C 115.597656 79.855469 118.683594 74.882812 121.707031 71.863281 C 125.785156 67.789062 131.3125 68.832031 133.53125 69.472656 C 135.242188 74.476562 140.449219 82.15625 150.847656 82.355469 C 150.992188 82.355469 151.132812 82.359375 151.273438 82.359375 C 157.417969 82.355469 162.050781 79.859375 166.144531 77.652344 C 171.132812 74.953125 174.148438 73.523438 178.023438 75.398438 C 178.824219 75.78125 179.789062 75.695312 180.5 75.164062 C 180.691406 75.019531 199.875 60.914062 212.355469 57.304688 C 226.792969 53.128906 240.871094 50.515625 246.054688 59.640625 C 249.441406 65.59375 246.917969 70.132812 245.714844 71.785156 C 236.445312 72.984375 224.753906 78.554688 223.042969 79.390625 C 221.847656 79.972656 221.355469 81.414062 221.9375 82.609375 C 222.527344 83.8125 223.960938 84.304688 225.164062 83.71875 C 230.953125 80.898438 240.167969 77.316406 246.480469 76.496094 C 246.914062 76.574219 247.359375 76.566406 247.773438 76.402344 C 249.425781 76.292969 250.871094 76.363281 251.839844 76.820312 C 255.71875 78.644531 257.652344 83.449219 258.128906 87.011719 C 258.546875 90.164062 257.957031 93.027344 256.648438 94.140625 C 256.441406 94.316406 256.296875 94.535156 256.164062 94.753906 C 255.203125 94.808594 254.203125 94.96875 253.121094 95.359375 C 248.050781 97.167969 236.984375 103.152344 236.511719 103.40625 C 235.34375 104.039062 234.90625 105.5 235.542969 106.671875 C 236.175781 107.851562 237.644531 108.273438 238.808594 107.644531 C 238.921875 107.585938 250.019531 101.585938 254.742188 99.898438 C 257.605469 98.867188 260.015625 99.5625 263.871094 106.152344 C 267.105469 111.6875 266.472656 115.054688 261.527344 118.574219 C 256.359375 122.257812 242.847656 130 242.710938 130.078125 C 241.554688 130.738281 241.15625 132.210938 241.816406 133.367188 C 242.261719 134.144531 243.074219 134.578125 243.910156 134.578125 C 244.316406 134.578125 244.726562 134.476562 245.105469 134.261719 C 245.667969 133.9375 258.957031 126.324219 264.324219 122.5 C 265.519531 123.074219 267.886719 124.667969 270.480469 129.039062 C 273.273438 133.738281 274.230469 141.082031 256.707031 156.285156 C 254.960938 157.800781 252.957031 159.632812 250.710938 161.679688 C 236.832031 174.351562 213.609375 195.558594 187.335938 200.058594 C 186.964844 200.121094 186.601562 200.230469 186.234375 200.300781 C 186.082031 200.320312 185.9375 200.351562 185.789062 200.398438 C 170.976562 203.332031 156.503906 211.820312 139.832031 221.65625 C 122.386719 231.957031 102.609375 243.625 78.589844 250.734375 C 77.316406 251.113281 76.585938 252.453125 76.960938 253.730469 C 77.273438 254.78125 78.234375 255.457031 79.273438 255.457031 C 79.5 255.457031 79.730469 255.425781 79.957031 255.359375 C 104.542969 248.082031 124.59375 236.25 142.277344 225.808594 C 158.542969 216.210938 172.664062 207.933594 186.648438 205.140625 C 190.484375 205.871094 214.023438 210.4375 223.3125 213.667969 C 242.636719 220.386719 258.164062 232.21875 273.179688 243.660156 C 280.183594 249 287.429688 254.519531 294.886719 259.367188 C 295.289062 259.632812 295.746094 259.753906 296.199219 259.753906 C 296.984375 259.753906 297.757812 259.371094 298.21875 258.660156 C 298.945312 257.542969 298.628906 256.050781 297.511719 255.324219 Z M 120.148438 147.292969 C 117.871094 148.914062 114.769531 149.328125 110.960938 148.515625 C 105.714844 147.402344 102.292969 147.558594 100.078125 148.152344 C 99.636719 144.546875 99.855469 138.550781 104.832031 135.101562 C 104.953125 135.148438 105.074219 135.195312 105.199219 135.226562 C 105.3125 135.253906 116.921875 137.957031 124.042969 141.375 C 123.546875 143.058594 122.453125 145.648438 120.148438 147.292969 Z M 139.164062 138.75 C 137.570312 139.707031 133.097656 140.453125 126.488281 137.195312 C 119.429688 133.726562 108.460938 131.042969 106.554688 130.59375 C 105.441406 130.011719 104.753906 129.027344 104.464844 127.589844 C 103.847656 124.589844 105.164062 120.363281 107.527344 117.753906 C 108.550781 116.617188 113.925781 113.730469 139.628906 124.414062 C 143.714844 126.109375 143.917969 128.394531 143.988281 129.140625 C 144.335938 133.042969 140.308594 138.011719 139.164062 138.75 Z M 143.136719 100.425781 C 156.515625 108.703125 152.828125 114.882812 151.058594 117.847656 C 148.691406 121.820312 144.195312 121.101562 144.011719 121.074219 L 143.972656 121.277344 C 143.242188 120.808594 142.445312 120.359375 141.484375 119.960938 C 126.238281 113.625 115.839844 111.023438 109.5 111.953125 L 109.625 111.746094 C 107.214844 110.304688 105.898438 108.808594 105.484375 107.035156 C 104.882812 104.433594 106.140625 100.78125 109.332031 95.875 C 114.546875 87.855469 130.511719 92.605469 143.136719 100.425781 Z M 178.746094 70.476562 C 173.109375 68.429688 168.394531 70.953125 163.859375 73.40625 C 160.003906 75.488281 155.785156 77.59375 150.941406 77.535156 C 140.507812 77.335938 137.894531 67.410156 137.71875 66.753906 C 137.707031 66.726562 136.890625 64.222656 137.953125 62.441406 C 138.617188 61.324219 140 60.597656 142.0625 60.277344 C 147.546875 59.4375 152.777344 55.488281 157.832031 51.671875 C 161.976562 48.546875 165.882812 45.597656 169.34375 44.757812 C 170.519531 44.472656 172.164062 44.199219 174.152344 44.199219 C 180.089844 44.199219 189.101562 46.625 197.925781 58.367188 C 189.53125 62.890625 181.625 68.414062 178.746094 70.476562 Z M 202.234375 56.164062 C 202.167969 56.019531 202.085938 55.882812 201.988281 55.753906 C 198.644531 51.25 195.21875 47.96875 191.875 45.558594 C 194.199219 44.054688 197.058594 42.667969 199.027344 42.84375 C 202.648438 43.207031 208.203125 48.097656 212.125 52.355469 C 211.753906 52.464844 211.363281 52.574219 211.019531 52.675781 C 208.269531 53.46875 205.273438 54.699219 202.234375 56.164062 Z M 202.234375 56.164062 " fill-opacity="1" fill-rule="nonzero"/></g><g fill="#0000FF" fill-opacity="1"><g transform="translate(37.500002, 329.089842)"><g><path d="M 10.421875 -27.96875 L 17.578125 -8.953125 L 17.65625 -8.953125 L 24.84375 -27.96875 L 33.171875 -27.96875 L 33.171875 -24.5625 L 31.78125 -24.421875 C 30.945312 -24.335938 30.539062 -23.847656 30.5625 -22.953125 L 31.625 -3.703125 L 34.21875 -3.578125 L 34.21875 0 L 24.09375 0 L 24.09375 -3.40625 L 25.609375 -3.53125 C 26.359375 -3.582031 26.722656 -3.945312 26.703125 -4.625 L 25.90625 -19.46875 L 25.8125 -19.46875 L 19.34375 -2.6875 L 15.34375 -2.6875 L 8.953125 -19.296875 L 8.875 -19.296875 L 8.03125 -3.703125 L 10.765625 -3.578125 L 10.765625 0 L 0.84375 0 L 0.84375 -3.40625 L 2.359375 -3.53125 C 3.003906 -3.582031 3.351562 -3.960938 3.40625 -4.671875 L 4.546875 -24.21875 L 1.96875 -24.390625 L 1.96875 -27.96875 Z M 10.421875 -27.96875 "/></g></g></g><g fill="#0000FF" fill-opacity="1"><g transform="translate(72.566713, 329.089842)"><g><path d="M 20.265625 -20.3125 L 20.265625 -4.671875 C 20.265625 -4.222656 20.34375 -3.910156 20.5 -3.734375 C 20.65625 -3.566406 20.925781 -3.472656 21.3125 -3.453125 L 22.65625 -3.359375 L 22.65625 0 L 15.984375 0 L 15.984375 -2.4375 L 15.859375 -2.484375 C 14.453125 -0.460938 12.53125 0.546875 10.09375 0.546875 C 7.226562 0.546875 5.109375 -0.363281 3.734375 -2.1875 C 2.367188 -4.007812 1.6875 -6.503906 1.6875 -9.671875 C 1.6875 -13.484375 2.609375 -16.453125 4.453125 -18.578125 C 6.304688 -20.710938 9.082031 -21.78125 12.78125 -21.78125 C 15.164062 -21.78125 17.660156 -21.289062 20.265625 -20.3125 Z M 15.390625 -6.6875 L 15.390625 -17.578125 C 14.609375 -17.941406 13.53125 -18.125 12.15625 -18.125 C 10.269531 -18.125 8.90625 -17.363281 8.0625 -15.84375 C 7.226562 -14.332031 6.8125 -12.332031 6.8125 -9.84375 C 6.8125 -5.300781 8.269531 -3.03125 11.1875 -3.03125 C 12.414062 -3.03125 13.421875 -3.398438 14.203125 -4.140625 C 14.992188 -4.878906 15.390625 -5.726562 15.390625 -6.6875 Z M 7.359375 -25.0625 L 5.34375 -26.53125 C 6.351562 -28.75 7.78125 -29.859375 9.625 -29.859375 C 10.300781 -29.859375 11.28125 -29.660156 12.5625 -29.265625 C 13.851562 -28.867188 14.800781 -28.671875 15.40625 -28.671875 C 16.007812 -28.671875 16.578125 -29.117188 17.109375 -30.015625 L 19.390625 -28.796875 C 18.460938 -26.359375 17.015625 -25.140625 15.046875 -25.140625 C 14.429688 -25.140625 13.503906 -25.328125 12.265625 -25.703125 C 11.035156 -26.085938 10.175781 -26.28125 9.6875 -26.28125 C 9.195312 -26.28125 8.796875 -26.203125 8.484375 -26.046875 C 8.179688 -25.890625 7.804688 -25.5625 7.359375 -25.0625 Z M 7.359375 -25.0625 "/></g></g></g><g fill="#0000FF" fill-opacity="1"><g transform="translate(96.407032, 329.089842)"><g><path d="M 11.0625 -3.0625 C 14.113281 -3.0625 15.640625 -5.53125 15.640625 -10.46875 C 15.640625 -12.96875 15.296875 -14.859375 14.609375 -16.140625 C 13.921875 -17.429688 12.769531 -18.078125 11.15625 -18.078125 C 9.550781 -18.078125 8.367188 -17.457031 7.609375 -16.21875 C 6.847656 -14.988281 6.46875 -13.3125 6.46875 -11.1875 C 6.46875 -7.226562 7.195312 -4.742188 8.65625 -3.734375 C 9.300781 -3.285156 10.101562 -3.0625 11.0625 -3.0625 Z M 1.390625 -10.59375 C 1.390625 -12.664062 1.695312 -14.46875 2.3125 -16 C 2.925781 -17.53125 3.753906 -18.703125 4.796875 -19.515625 C 6.785156 -21.023438 8.984375 -21.78125 11.390625 -21.78125 C 13.078125 -21.78125 14.5 -21.503906 15.65625 -20.953125 C 16.820312 -20.410156 17.734375 -19.78125 18.390625 -19.0625 C 19.054688 -18.351562 19.617188 -17.316406 20.078125 -15.953125 C 20.535156 -14.597656 20.765625 -12.992188 20.765625 -11.140625 C 20.765625 -7.273438 19.828125 -4.347656 17.953125 -2.359375 C 16.078125 -0.367188 13.671875 0.625 10.734375 0.625 C 7.804688 0.625 5.515625 -0.316406 3.859375 -2.203125 C 2.210938 -4.097656 1.390625 -6.894531 1.390625 -10.59375 Z M 1.390625 -10.59375 "/></g></g></g><g fill="#0000FF" fill-opacity="1"><g transform="translate(118.607544, 329.089842)"><g><path d="M 12.40625 -17.953125 C 11.726562 -18.203125 10.910156 -18.328125 9.953125 -18.328125 C 9.003906 -18.328125 8.242188 -18.109375 7.671875 -17.671875 C 7.097656 -17.242188 6.8125 -16.710938 6.8125 -16.078125 C 6.8125 -15.453125 6.914062 -14.960938 7.125 -14.609375 C 7.332031 -14.253906 7.660156 -13.953125 8.109375 -13.703125 C 8.816406 -13.335938 9.660156 -13.019531 10.640625 -12.75 C 11.617188 -12.488281 12.347656 -12.28125 12.828125 -12.125 C 13.304688 -11.976562 13.898438 -11.722656 14.609375 -11.359375 C 15.328125 -10.992188 15.867188 -10.597656 16.234375 -10.171875 C 17.210938 -9.140625 17.703125 -7.8125 17.703125 -6.1875 C 17.703125 -4.082031 16.9375 -2.429688 15.40625 -1.234375 C 13.882812 -0.046875 11.945312 0.546875 9.59375 0.546875 C 6.164062 0.546875 3.582031 0.113281 1.84375 -0.75 L 1.84375 -6.59375 L 5.640625 -6.890625 L 5.640625 -4.875 C 5.640625 -3.644531 6.816406 -3.03125 9.171875 -3.03125 C 11.523438 -3.03125 12.703125 -3.882812 12.703125 -5.59375 C 12.703125 -6.207031 12.5 -6.707031 12.09375 -7.09375 C 11.6875 -7.488281 11.285156 -7.753906 10.890625 -7.890625 C 10.492188 -8.035156 10.019531 -8.175781 9.46875 -8.3125 C 8.925781 -8.457031 8.394531 -8.597656 7.875 -8.734375 C 7.363281 -8.878906 6.804688 -9.070312 6.203125 -9.3125 C 5.597656 -9.550781 4.929688 -9.894531 4.203125 -10.34375 C 2.773438 -11.269531 2.0625 -12.816406 2.0625 -14.984375 C 2.0625 -17.160156 2.832031 -18.835938 4.375 -20.015625 C 5.914062 -21.191406 7.851562 -21.78125 10.1875 -21.78125 C 12.53125 -21.78125 14.851562 -21.21875 17.15625 -20.09375 L 17.15625 -15.046875 L 13.375 -14.765625 L 13.375 -16.53125 C 13.375 -17.226562 13.050781 -17.703125 12.40625 -17.953125 Z M 12.40625 -17.953125 "/></g></g></g><g fill="#0000FF" fill-opacity="1"><g transform="translate(137.57048, 329.089842)"><g/></g></g><g fill="#0000FF" fill-opacity="1"><g transform="translate(145.97976, 329.089842)"><g><path d="M 10.140625 -3.78125 C 13.492188 -3.78125 15.171875 -5.128906 15.171875 -7.828125 C 15.171875 -9.222656 14.429688 -10.257812 12.953125 -10.9375 C 12.160156 -11.320312 11.140625 -11.679688 9.890625 -12.015625 C 8.648438 -12.359375 7.613281 -12.703125 6.78125 -13.046875 C 5.957031 -13.398438 5.125 -13.882812 4.28125 -14.5 C 2.632812 -15.738281 1.8125 -17.640625 1.8125 -20.203125 C 1.8125 -22.765625 2.695312 -24.78125 4.46875 -26.25 C 6.25 -27.726562 8.578125 -28.46875 11.453125 -28.46875 C 14.328125 -28.46875 17 -27.890625 19.46875 -26.734375 L 19.46875 -20.4375 L 15.171875 -20.140625 L 15.171875 -22.578125 C 15.171875 -22.992188 15.117188 -23.300781 15.015625 -23.5 C 14.703125 -24.03125 13.710938 -24.296875 12.046875 -24.296875 C 10.378906 -24.296875 9.144531 -24 8.34375 -23.40625 C 7.539062 -22.820312 7.140625 -21.914062 7.140625 -20.6875 C 7.140625 -19.789062 7.476562 -19.003906 8.15625 -18.328125 C 8.601562 -17.878906 9.269531 -17.507812 10.15625 -17.21875 C 11.039062 -16.925781 11.976562 -16.625 12.96875 -16.3125 C 13.96875 -16.007812 14.851562 -15.675781 15.625 -15.3125 C 16.394531 -14.945312 17.195312 -14.441406 18.03125 -13.796875 C 19.75 -12.535156 20.609375 -10.585938 20.609375 -7.953125 C 20.609375 -5.316406 19.660156 -3.238281 17.765625 -1.71875 C 15.867188 -0.207031 13.375 0.546875 10.28125 0.546875 C 7.1875 0.546875 4.40625 -0.0234375 1.9375 -1.171875 L 1.9375 -7.828125 L 6.21875 -8.109375 L 6.21875 -5.546875 C 6.21875 -5.128906 6.273438 -4.820312 6.390625 -4.625 C 6.503906 -4.425781 6.847656 -4.234375 7.421875 -4.046875 C 7.992188 -3.867188 8.898438 -3.78125 10.140625 -3.78125 Z M 10.140625 -3.78125 "/></g></g></g><g fill="#0000FF" fill-opacity="1"><g transform="translate(167.927986, 329.089842)"><g><path d="M 11.0625 -3.0625 C 14.113281 -3.0625 15.640625 -5.53125 15.640625 -10.46875 C 15.640625 -12.96875 15.296875 -14.859375 14.609375 -16.140625 C 13.921875 -17.429688 12.769531 -18.078125 11.15625 -18.078125 C 9.550781 -18.078125 8.367188 -17.457031 7.609375 -16.21875 C 6.847656 -14.988281 6.46875 -13.3125 6.46875 -11.1875 C 6.46875 -7.226562 7.195312 -4.742188 8.65625 -3.734375 C 9.300781 -3.285156 10.101562 -3.0625 11.0625 -3.0625 Z M 1.390625 -10.59375 C 1.390625 -12.664062 1.695312 -14.46875 2.3125 -16 C 2.925781 -17.53125 3.753906 -18.703125 4.796875 -19.515625 C 6.785156 -21.023438 8.984375 -21.78125 11.390625 -21.78125 C 13.078125 -21.78125 14.5 -21.503906 15.65625 -20.953125 C 16.820312 -20.410156 17.734375 -19.78125 18.390625 -19.0625 C 19.054688 -18.351562 19.617188 -17.316406 20.078125 -15.953125 C 20.535156 -14.597656 20.765625 -12.992188 20.765625 -11.140625 C 20.765625 -7.273438 19.828125 -4.347656 17.953125 -2.359375 C 16.078125 -0.367188 13.671875 0.625 10.734375 0.625 C 7.804688 0.625 5.515625 -0.316406 3.859375 -2.203125 C 2.210938 -4.097656 1.390625 -6.894531 1.390625 -10.59375 Z M 1.390625 -10.59375 "/></g></g></g><g fill="#0000FF" fill-opacity="1"><g transform="translate(190.128499, 329.089842)"><g><path d="M 8.90625 -29.984375 L 8.90625 -3.484375 L 11.3125 -3.359375 L 11.3125 0 L 1.296875 0 L 1.296875 -3.203125 L 2.6875 -3.328125 C 3.5 -3.410156 3.90625 -3.859375 3.90625 -4.671875 L 3.90625 -25.390625 C 3.90625 -26.015625 3.554688 -26.351562 2.859375 -26.40625 L 1.390625 -26.484375 L 1.390625 -29.984375 Z M 8.90625 -29.984375 "/></g></g></g><g fill="#0000FF" fill-opacity="1"><g transform="translate(202.658329, 329.089842)"><g><path d="M 9 -21.15625 L 9 -3.484375 L 11.390625 -3.359375 L 11.390625 0 L 1.390625 0 L 1.390625 -3.203125 L 2.78125 -3.328125 C 3.59375 -3.410156 4 -3.859375 4 -4.671875 L 4 -16.359375 C 4 -16.835938 3.921875 -17.160156 3.765625 -17.328125 C 3.609375 -17.492188 3.332031 -17.578125 2.9375 -17.578125 L 1.46875 -17.65625 L 1.46875 -21.15625 Z M 3.6875 -24.78125 C 3.101562 -25.363281 2.8125 -26.101562 2.8125 -27 C 2.8125 -27.894531 3.101562 -28.640625 3.6875 -29.234375 C 4.28125 -29.835938 5.050781 -30.140625 6 -30.140625 C 6.957031 -30.140625 7.738281 -29.835938 8.34375 -29.234375 C 8.945312 -28.640625 9.25 -27.894531 9.25 -27 C 9.25 -26.101562 8.945312 -25.363281 8.34375 -24.78125 C 7.738281 -24.207031 6.957031 -23.921875 6 -23.921875 C 5.050781 -23.921875 4.28125 -24.207031 3.6875 -24.78125 Z M 3.6875 -24.78125 "/></g></g></g><g fill="#0000FF" fill-opacity="1"><g transform="translate(215.104064, 329.089842)"><g><path d="M 11.9375 -21.78125 C 13.144531 -21.78125 14.296875 -21.613281 15.390625 -21.28125 L 15.390625 -25.515625 C 15.390625 -26.140625 15.023438 -26.476562 14.296875 -26.53125 L 12.484375 -26.65625 L 12.484375 -29.984375 L 20.3125 -29.984375 L 20.3125 -4.421875 C 20.332031 -3.773438 20.679688 -3.453125 21.359375 -3.453125 L 22.828125 -3.359375 L 22.828125 0 L 16.015625 0 L 16.015625 -2.484375 L 15.890625 -2.515625 C 14.628906 -0.472656 12.722656 0.546875 10.171875 0.546875 C 6.972656 0.546875 4.734375 -0.519531 3.453125 -2.65625 C 2.273438 -4.582031 1.6875 -6.945312 1.6875 -9.75 C 1.6875 -13.394531 2.585938 -16.3125 4.390625 -18.5 C 6.203125 -20.6875 8.71875 -21.78125 11.9375 -21.78125 Z M 15.390625 -6.5625 L 15.390625 -17.453125 C 14.378906 -17.898438 13.3125 -18.125 12.1875 -18.125 C 10.34375 -18.125 8.992188 -17.378906 8.140625 -15.890625 C 7.285156 -14.410156 6.859375 -12.519531 6.859375 -10.21875 C 6.859375 -5.507812 8.367188 -3.15625 11.390625 -3.15625 C 12.546875 -3.15625 13.5 -3.484375 14.25 -4.140625 C 15.007812 -4.796875 15.390625 -5.601562 15.390625 -6.5625 Z M 15.390625 -6.5625 "/></g></g></g><g fill="#0000FF" fill-opacity="1"><g transform="translate(238.98643, 329.089842)"><g><path d="M 20.265625 -20.3125 L 20.265625 -4.671875 C 20.265625 -4.222656 20.34375 -3.910156 20.5 -3.734375 C 20.65625 -3.566406 20.925781 -3.472656 21.3125 -3.453125 L 22.65625 -3.359375 L 22.65625 0 L 15.984375 0 L 15.984375 -2.4375 L 15.859375 -2.484375 C 14.453125 -0.460938 12.53125 0.546875 10.09375 0.546875 C 7.226562 0.546875 5.109375 -0.363281 3.734375 -2.1875 C 2.367188 -4.007812 1.6875 -6.503906 1.6875 -9.671875 C 1.6875 -13.484375 2.609375 -16.453125 4.453125 -18.578125 C 6.304688 -20.710938 9.082031 -21.78125 12.78125 -21.78125 C 15.164062 -21.78125 17.660156 -21.289062 20.265625 -20.3125 Z M 15.390625 -6.6875 L 15.390625 -17.578125 C 14.609375 -17.941406 13.53125 -18.125 12.15625 -18.125 C 10.269531 -18.125 8.90625 -17.363281 8.0625 -15.84375 C 7.226562 -14.332031 6.8125 -12.332031 6.8125 -9.84375 C 6.8125 -5.300781 8.269531 -3.03125 11.1875 -3.03125 C 12.414062 -3.03125 13.421875 -3.398438 14.203125 -4.140625 C 14.992188 -4.878906 15.390625 -5.726562 15.390625 -6.6875 Z M 9 -24.96875 L 13.875 -33.046875 L 15.859375 -32.125 C 16.671875 -31.675781 17.078125 -31.171875 17.078125 -30.609375 C 17.078125 -30.046875 16.722656 -29.441406 16.015625 -28.796875 L 10.640625 -23.59375 Z M 9 -24.96875 "/></g></g></g><g fill="#0000FF" fill-opacity="1"><g transform="translate(262.826749, 329.089842)"><g><path d="M 4 -4.703125 L 4 -16.359375 C 4 -16.804688 3.921875 -17.117188 3.765625 -17.296875 C 3.609375 -17.484375 3.332031 -17.59375 2.9375 -17.625 L 1.171875 -17.75 L 1.171875 -21.15625 L 8.28125 -21.15625 L 8.28125 -18 C 8.789062 -19.09375 9.578125 -19.992188 10.640625 -20.703125 C 11.703125 -21.421875 12.925781 -21.78125 14.3125 -21.78125 C 15.695312 -21.78125 17.023438 -21.472656 18.296875 -20.859375 L 18.296875 -14.59375 L 14.375 -14.296875 L 14.375 -16.234375 C 14.375 -16.796875 14.234375 -17.144531 13.953125 -17.28125 C 13.648438 -17.414062 13.273438 -17.484375 12.828125 -17.484375 C 11.703125 -17.484375 10.78125 -17.082031 10.0625 -16.28125 C 9.351562 -15.488281 9 -14.476562 9 -13.25 L 9 -3.484375 L 12.65625 -3.328125 L 12.65625 0 L 1.390625 0 L 1.390625 -3.203125 L 2.78125 -3.328125 C 3.195312 -3.378906 3.503906 -3.492188 3.703125 -3.671875 C 3.898438 -3.859375 4 -4.203125 4 -4.703125 Z M 4 -4.703125 "/></g></g></g><g fill="#0000FF" fill-opacity="1"><g transform="translate(282.252208, 329.089842)"><g><path d="M 9 -21.15625 L 9 -3.484375 L 11.390625 -3.359375 L 11.390625 0 L 1.390625 0 L 1.390625 -3.203125 L 2.78125 -3.328125 C 3.59375 -3.410156 4 -3.859375 4 -4.671875 L 4 -16.359375 C 4 -16.835938 3.921875 -17.160156 3.765625 -17.328125 C 3.609375 -17.492188 3.332031 -17.578125 2.9375 -17.578125 L 1.46875 -17.65625 L 1.46875 -21.15625 Z M 3.6875 -24.78125 C 3.101562 -25.363281 2.8125 -26.101562 2.8125 -27 C 2.8125 -27.894531 3.101562 -28.640625 3.6875 -29.234375 C 4.28125 -29.835938 5.050781 -30.140625 6 -30.140625 C 6.957031 -30.140625 7.738281 -29.835938 8.34375 -29.234375 C 8.945312 -28.640625 9.25 -27.894531 9.25 -27 C 9.25 -26.101562 8.945312 -25.363281 8.34375 -24.78125 C 7.738281 -24.207031 6.957031 -23.921875 6 -23.921875 C 5.050781 -23.921875 4.28125 -24.207031 3.6875 -24.78125 Z M 3.6875 -24.78125 "/></g></g></g><g fill="#0000FF" fill-opacity="1"><g transform="translate(294.697943, 329.089842)"><g><path d="M 20.265625 -20.3125 L 20.265625 -4.671875 C 20.265625 -4.222656 20.34375 -3.910156 20.5 -3.734375 C 20.65625 -3.566406 20.925781 -3.472656 21.3125 -3.453125 L 22.65625 -3.359375 L 22.65625 0 L 15.984375 0 L 15.984375 -2.4375 L 15.859375 -2.484375 C 14.453125 -0.460938 12.53125 0.546875 10.09375 0.546875 C 7.226562 0.546875 5.109375 -0.363281 3.734375 -2.1875 C 2.367188 -4.007812 1.6875 -6.503906 1.6875 -9.671875 C 1.6875 -13.484375 2.609375 -16.453125 4.453125 -18.578125 C 6.304688 -20.710938 9.082031 -21.78125 12.78125 -21.78125 C 15.164062 -21.78125 17.660156 -21.289062 20.265625 -20.3125 Z M 15.390625 -6.6875 L 15.390625 -17.578125 C 14.609375 -17.941406 13.53125 -18.125 12.15625 -18.125 C 10.269531 -18.125 8.90625 -17.363281 8.0625 -15.84375 C 7.226562 -14.332031 6.8125 -12.332031 6.8125 -9.84375 C 6.8125 -5.300781 8.269531 -3.03125 11.1875 -3.03125 C 12.414062 -3.03125 13.421875 -3.398438 14.203125 -4.140625 C 14.992188 -4.878906 15.390625 -5.726562 15.390625 -6.6875 Z M 15.390625 -6.6875 "/></g></g></g><g fill="#0000FF" fill-opacity="1"><g transform="translate(318.538262, 329.089842)"><g><path d="M 12.40625 -17.953125 C 11.726562 -18.203125 10.910156 -18.328125 9.953125 -18.328125 C 9.003906 -18.328125 8.242188 -18.109375 7.671875 -17.671875 C 7.097656 -17.242188 6.8125 -16.710938 6.8125 -16.078125 C 6.8125 -15.453125 6.914062 -14.960938 7.125 -14.609375 C 7.332031 -14.253906 7.660156 -13.953125 8.109375 -13.703125 C 8.816406 -13.335938 9.660156 -13.019531 10.640625 -12.75 C 11.617188 -12.488281 12.347656 -12.28125 12.828125 -12.125 C 13.304688 -11.976562 13.898438 -11.722656 14.609375 -11.359375 C 15.328125 -10.992188 15.867188 -10.597656 16.234375 -10.171875 C 17.210938 -9.140625 17.703125 -7.8125 17.703125 -6.1875 C 17.703125 -4.082031 16.9375 -2.429688 15.40625 -1.234375 C 13.882812 -0.046875 11.945312 0.546875 9.59375 0.546875 C 6.164062 0.546875 3.582031 0.113281 1.84375 -0.75 L 1.84375 -6.59375 L 5.640625 -6.890625 L 5.640625 -4.875 C 5.640625 -3.644531 6.816406 -3.03125 9.171875 -3.03125 C 11.523438 -3.03125 12.703125 -3.882812 12.703125 -5.59375 C 12.703125 -6.207031 12.5 -6.707031 12.09375 -7.09375 C 11.6875 -7.488281 11.285156 -7.753906 10.890625 -7.890625 C 10.492188 -8.035156 10.019531 -8.175781 9.46875 -8.3125 C 8.925781 -8.457031 8.394531 -8.597656 7.875 -8.734375 C 7.363281 -8.878906 6.804688 -9.070312 6.203125 -9.3125 C 5.597656 -9.550781 4.929688 -9.894531 4.203125 -10.34375 C 2.773438 -11.269531 2.0625 -12.816406 2.0625 -14.984375 C 2.0625 -17.160156 2.832031 -18.835938 4.375 -20.015625 C 5.914062 -21.191406 7.851562 -21.78125 10.1875 -21.78125 C 12.53125 -21.78125 14.851562 -21.21875 17.15625 -20.09375 L 17.15625 -15.046875 L 13.375 -14.765625 L 13.375 -16.53125 C 13.375 -17.226562 13.050781 -17.703125 12.40625 -17.953125 Z M 12.40625 -17.953125 "/></g></g></g></svg>