<svg xmlns="http://www.w3.org/2000/svg" xmlns:xlink="http://www.w3.org/1999/xlink" width="500" zoomAndPan="magnify" viewBox="0 0 375 374.999991" height="500" preserveAspectRatio="xMidYMid meet" version="1.0"><defs><g/><clipPath id="1ad72e8039"><path d="M 37.503906 99.613281 L 337.601562 99.613281 L 337.601562 275.480469 L 37.503906 275.480469 Z M 37.503906 99.613281 " clip-rule="nonzero"/></clipPath><clipPath id="478c38eacc"><path d="M 48.203125 139 L 142.5 139 L 142.5 233 L 48.203125 233 Z M 48.203125 139 " clip-rule="nonzero"/></clipPath></defs><g clip-path="url(#1ad72e8039)"><path fill="#004aad" d="M 37.503906 99.613281 L 337.601562 99.613281 L 337.601562 275.480469 L 37.503906 275.480469 Z M 37.503906 99.613281 " fill-opacity="1" fill-rule="nonzero"/></g><g clip-path="url(#478c38eacc)"><path fill="#ffffff" d="M 141.742188 231.050781 C 138.652344 229.042969 135.753906 226.832031 132.6875 224.492188 C 126.207031 219.554688 119.507812 214.453125 111.023438 211.503906 C 108.378906 210.582031 103.296875 209.453125 99.550781 208.679688 C 109.511719 205.542969 118 197.804688 123.320312 192.945312 C 124.253906 192.089844 125.09375 191.328125 125.820312 190.695312 C 127.652344 189.101562 129.09375 187.617188 130.21875 186.199219 C 131.9375 187.25 136.335938 189.917969 140.6875 192.40625 C 140.847656 192.496094 141.019531 192.539062 141.195312 192.539062 C 141.546875 192.539062 141.890625 192.355469 142.078125 192.027344 C 142.359375 191.539062 142.1875 190.914062 141.699219 190.636719 C 137.476562 188.222656 133.207031 185.636719 131.414062 184.542969 C 133.273438 181.582031 133.480469 178.976562 132.0625 176.589844 C 131.0625 174.902344 130.0625 173.960938 129.257812 173.417969 C 130.742188 171.597656 130.757812 169.460938 129.273438 166.917969 C 128.542969 165.671875 127.617188 164.382812 126.402344 163.667969 C 127.054688 162.65625 127.324219 161.210938 127.105469 159.582031 C 126.824219 157.46875 125.671875 154.8125 123.292969 153.695312 C 122.960938 153.539062 122.578125 153.453125 122.167969 153.390625 C 122.835938 151.855469 123.117188 149.667969 121.75 147.265625 C 119.039062 142.5 112.472656 143.425781 107.824219 144.59375 C 106.601562 143.164062 103.160156 139.425781 100.285156 139.140625 C 98.386719 138.949219 96.164062 140.410156 95.164062 141.15625 C 91.457031 139.25 88.261719 139.699219 87.042969 139.996094 C 85.171875 140.449219 83.355469 141.824219 81.429688 143.273438 C 79.492188 144.738281 77.488281 146.25 75.675781 146.527344 C 74.175781 146.757812 73.105469 147.394531 72.496094 148.414062 C 72.125 149.035156 72 149.6875 71.980469 150.261719 C 70.394531 149.996094 67.921875 150.015625 65.933594 152 C 64.398438 153.539062 62.683594 156.195312 62.914062 158.617188 C 62.96875 159.191406 63.148438 159.71875 63.410156 160.199219 C 62.210938 160.605469 61.183594 161.335938 60.433594 162.488281 C 58.738281 165.089844 58.132812 167.089844 58.527344 168.78125 C 58.75 169.734375 59.285156 170.558594 60.132812 171.28125 C 60.050781 171.355469 59.9375 171.40625 59.863281 171.488281 C 58.425781 173.078125 57.695312 175.519531 58.085938 177.425781 C 58.191406 177.953125 58.402344 178.417969 58.671875 178.832031 C 55.972656 181.015625 55.867188 184.582031 56.335938 186.808594 L 48.863281 191.734375 C 48.394531 192.042969 48.265625 192.675781 48.574219 193.144531 C 48.769531 193.441406 49.09375 193.605469 49.425781 193.605469 C 49.621094 193.605469 49.8125 193.550781 49.988281 193.4375 L 57.847656 188.253906 C 58.027344 188.183594 58.191406 188.074219 58.300781 187.886719 C 58.308594 187.878906 59.105469 187.160156 62.402344 187.863281 C 64.617188 188.332031 66.46875 188.042969 67.921875 186.996094 C 69.273438 186.023438 69.933594 184.617188 70.257812 183.613281 C 71.324219 183.957031 72.300781 184.121094 73.140625 184.121094 C 74.273438 184.121094 75.179688 183.863281 75.808594 183.488281 C 76.605469 183.007812 79.039062 180.3125 78.835938 177.5625 C 78.804688 177.140625 78.703125 176.664062 78.480469 176.179688 C 79.503906 175.949219 80.695312 175.363281 81.542969 173.941406 C 83.0625 171.394531 82.90625 169.054688 81.140625 166.855469 C 84.277344 165.394531 84.867188 161.753906 84.695312 159.910156 C 84.640625 159.347656 84.125 158.9375 83.585938 158.988281 C 83.023438 159.039062 82.609375 159.535156 82.664062 160.097656 C 82.667969 160.140625 83.003906 164.195312 79.855469 165.21875 C 79.773438 165.242188 79.710938 165.296875 79.640625 165.339844 C 79.019531 164.816406 78.335938 164.296875 77.515625 163.789062 C 73.84375 161.519531 69.355469 159.683594 65.722656 159.796875 C 65.28125 159.425781 65 158.988281 64.945312 158.421875 C 64.789062 156.824219 66.097656 154.722656 67.375 153.441406 C 69.101562 151.71875 71.4375 152.160156 72.378906 152.433594 C 73.101562 154.550781 75.304688 157.796875 79.703125 157.882812 C 79.761719 157.882812 79.824219 157.882812 79.882812 157.882812 C 82.480469 157.882812 84.441406 156.828125 86.171875 155.890625 C 88.28125 154.75 89.558594 154.144531 91.199219 154.9375 C 91.535156 155.101562 91.945312 155.0625 92.246094 154.839844 C 92.328125 154.777344 100.441406 148.8125 105.71875 147.285156 C 111.828125 145.519531 117.785156 144.414062 119.976562 148.273438 C 121.410156 150.792969 120.339844 152.710938 119.832031 153.410156 C 115.910156 153.917969 110.964844 156.273438 110.242188 156.628906 C 109.738281 156.875 109.527344 157.484375 109.773438 157.992188 C 110.023438 158.5 110.632812 158.707031 111.140625 158.460938 C 113.585938 157.265625 117.484375 155.75 120.15625 155.402344 C 120.339844 155.4375 120.527344 155.433594 120.703125 155.363281 C 121.402344 155.316406 122.015625 155.347656 122.421875 155.539062 C 124.0625 156.3125 124.882812 158.34375 125.082031 159.851562 C 125.261719 161.183594 125.011719 162.398438 124.457031 162.867188 C 124.367188 162.941406 124.308594 163.035156 124.253906 163.128906 C 123.84375 163.148438 123.421875 163.21875 122.964844 163.382812 C 120.820312 164.148438 116.140625 166.679688 115.941406 166.785156 C 115.445312 167.054688 115.261719 167.671875 115.53125 168.167969 C 115.796875 168.667969 116.417969 168.84375 116.910156 168.578125 C 116.960938 168.554688 121.652344 166.015625 123.648438 165.300781 C 124.863281 164.867188 125.882812 165.160156 127.511719 167.949219 C 128.882812 170.289062 128.613281 171.714844 126.523438 173.203125 C 124.335938 174.761719 118.621094 178.035156 118.5625 178.070312 C 118.074219 178.347656 117.902344 178.972656 118.183594 179.460938 C 118.371094 179.789062 118.714844 179.972656 119.066406 179.972656 C 119.242188 179.972656 119.414062 179.929688 119.574219 179.839844 C 119.8125 179.703125 125.433594 176.480469 127.703125 174.863281 C 128.210938 175.105469 129.210938 175.78125 130.308594 177.628906 C 131.488281 179.617188 131.894531 182.722656 124.484375 189.15625 C 123.742188 189.796875 122.894531 190.570312 121.945312 191.4375 C 116.074219 196.796875 106.253906 205.769531 95.136719 207.671875 C 94.980469 207.699219 94.828125 207.746094 94.671875 207.773438 C 94.605469 207.78125 94.546875 207.796875 94.484375 207.816406 C 88.21875 209.054688 82.09375 212.648438 75.042969 216.808594 C 67.664062 221.164062 59.296875 226.101562 49.136719 229.109375 C 48.597656 229.269531 48.289062 229.835938 48.449219 230.375 C 48.578125 230.820312 48.984375 231.105469 49.425781 231.105469 C 49.523438 231.105469 49.621094 231.09375 49.714844 231.0625 C 60.117188 227.984375 68.597656 222.980469 76.078125 218.566406 C 82.957031 214.503906 88.929688 211.003906 94.847656 209.820312 C 96.46875 210.132812 106.425781 212.0625 110.355469 213.429688 C 118.53125 216.269531 125.097656 221.277344 131.449219 226.117188 C 134.414062 228.375 137.476562 230.707031 140.632812 232.761719 C 140.804688 232.871094 140.996094 232.925781 141.1875 232.925781 C 141.519531 232.925781 141.847656 232.761719 142.042969 232.460938 C 142.347656 231.988281 142.214844 231.355469 141.742188 231.050781 Z M 66.714844 185.351562 C 65.753906 186.039062 64.441406 186.210938 62.828125 185.867188 C 60.609375 185.398438 59.164062 185.464844 58.226562 185.714844 C 58.039062 184.191406 58.132812 181.652344 60.238281 180.195312 C 60.289062 180.214844 60.339844 180.234375 60.390625 180.246094 C 60.441406 180.257812 65.351562 181.402344 68.363281 182.847656 C 68.152344 183.558594 67.691406 184.65625 66.714844 185.351562 Z M 74.757812 181.738281 C 74.085938 182.140625 72.195312 182.457031 69.398438 181.082031 C 66.410156 179.613281 61.773438 178.476562 60.964844 178.285156 C 60.496094 178.042969 60.203125 177.625 60.082031 177.015625 C 59.820312 175.746094 60.378906 173.960938 61.378906 172.855469 C 61.808594 172.375 64.085938 171.152344 74.957031 175.671875 C 76.683594 176.390625 76.769531 177.355469 76.800781 177.671875 C 76.949219 179.324219 75.242188 181.425781 74.757812 181.738281 Z M 76.441406 165.523438 C 82.097656 169.027344 80.539062 171.640625 79.792969 172.894531 C 78.789062 174.578125 76.886719 174.273438 76.8125 174.261719 L 76.792969 174.347656 C 76.484375 174.148438 76.148438 173.957031 75.742188 173.789062 C 69.292969 171.109375 64.894531 170.007812 62.210938 170.402344 L 62.265625 170.316406 C 61.246094 169.707031 60.6875 169.070312 60.515625 168.320312 C 60.257812 167.222656 60.789062 165.675781 62.140625 163.601562 C 64.347656 160.207031 71.097656 162.21875 76.441406 165.527344 Z M 91.503906 152.859375 C 89.117188 151.992188 87.125 153.058594 85.207031 154.097656 C 83.574219 154.976562 81.789062 155.867188 79.742188 155.84375 C 75.328125 155.757812 74.222656 151.558594 74.148438 151.28125 C 74.144531 151.273438 73.796875 150.210938 74.246094 149.457031 C 74.527344 148.984375 75.113281 148.679688 75.984375 148.542969 C 78.304688 148.1875 80.519531 146.515625 82.65625 144.902344 C 84.410156 143.582031 86.0625 142.332031 87.527344 141.976562 C 88.023438 141.855469 88.71875 141.742188 89.5625 141.742188 C 92.070312 141.742188 95.882812 142.769531 99.617188 147.734375 C 96.066406 149.648438 92.722656 151.984375 91.503906 152.859375 Z M 101.4375 146.800781 C 101.410156 146.742188 101.378906 146.683594 101.335938 146.628906 C 99.921875 144.722656 98.472656 143.335938 97.058594 142.316406 C 98.042969 141.679688 99.25 141.09375 100.082031 141.167969 C 101.617188 141.320312 103.964844 143.390625 105.625 145.191406 C 105.464844 145.238281 105.300781 145.285156 105.15625 145.328125 C 103.992188 145.664062 102.726562 146.183594 101.4375 146.800781 Z M 101.4375 146.800781 " fill-opacity="1" fill-rule="nonzero"/></g><g fill="#ffffff" fill-opacity="1"><g transform="translate(193.164829, 175.627835)"><g><path d="M 9.15625 -24.546875 L 15.4375 -7.859375 L 15.5 -7.859375 L 21.828125 -24.546875 L 29.125 -24.546875 L 29.125 -21.5625 L 27.90625 -21.453125 C 27.175781 -21.378906 26.820312 -20.945312 26.84375 -20.15625 L 27.765625 -3.25 L 30.046875 -3.140625 L 30.046875 0 L 21.15625 0 L 21.15625 -2.984375 L 22.484375 -3.09375 C 23.148438 -3.144531 23.472656 -3.46875 23.453125 -4.0625 L 22.75 -17.09375 L 22.671875 -17.09375 L 16.984375 -2.359375 L 13.46875 -2.359375 L 7.859375 -16.953125 L 7.796875 -16.953125 L 7.046875 -3.25 L 9.453125 -3.140625 L 9.453125 0 L 0.734375 0 L 0.734375 -2.984375 L 2.0625 -3.09375 C 2.632812 -3.144531 2.941406 -3.476562 2.984375 -4.09375 L 3.984375 -21.265625 L 1.734375 -21.421875 L 1.734375 -24.546875 Z M 9.15625 -24.546875 "/></g></g></g><g fill="#ffffff" fill-opacity="1"><g transform="translate(223.952595, 175.627835)"><g><path d="M 17.796875 -17.828125 L 17.796875 -4.09375 C 17.796875 -3.695312 17.863281 -3.425781 18 -3.28125 C 18.132812 -3.132812 18.375 -3.050781 18.71875 -3.03125 L 19.90625 -2.953125 L 19.90625 0 L 14.03125 0 L 14.03125 -2.140625 L 13.921875 -2.171875 C 12.691406 -0.398438 11.003906 0.484375 8.859375 0.484375 C 6.347656 0.484375 4.488281 -0.3125 3.28125 -1.90625 C 2.082031 -3.507812 1.484375 -5.703125 1.484375 -8.484375 C 1.484375 -11.835938 2.289062 -14.445312 3.90625 -16.3125 C 5.53125 -18.1875 7.96875 -19.125 11.21875 -19.125 C 13.3125 -19.125 15.503906 -18.691406 17.796875 -17.828125 Z M 13.515625 -5.875 L 13.515625 -15.4375 C 12.828125 -15.75 11.878906 -15.90625 10.671875 -15.90625 C 9.023438 -15.90625 7.832031 -15.238281 7.09375 -13.90625 C 6.351562 -12.582031 5.984375 -10.828125 5.984375 -8.640625 C 5.984375 -4.648438 7.265625 -2.65625 9.828125 -2.65625 C 10.910156 -2.65625 11.796875 -2.976562 12.484375 -3.625 C 13.171875 -4.28125 13.515625 -5.03125 13.515625 -5.875 Z M 6.46875 -22 L 4.6875 -23.296875 C 5.570312 -25.242188 6.828125 -26.21875 8.453125 -26.21875 C 9.046875 -26.21875 9.90625 -26.046875 11.03125 -25.703125 C 12.164062 -25.359375 13 -25.1875 13.53125 -25.1875 C 14.0625 -25.1875 14.5625 -25.578125 15.03125 -26.359375 L 17.015625 -25.296875 C 16.203125 -23.148438 14.9375 -22.078125 13.21875 -22.078125 C 12.675781 -22.078125 11.863281 -22.242188 10.78125 -22.578125 C 9.695312 -22.910156 8.9375 -23.078125 8.5 -23.078125 C 8.070312 -23.078125 7.722656 -23.007812 7.453125 -22.875 C 7.179688 -22.738281 6.851562 -22.445312 6.46875 -22 Z M 6.46875 -22 "/></g></g></g><g fill="#ffffff" fill-opacity="1"><g transform="translate(244.883845, 175.627835)"><g><path d="M 9.703125 -2.6875 C 12.390625 -2.6875 13.734375 -4.851562 13.734375 -9.1875 C 13.734375 -11.382812 13.429688 -13.046875 12.828125 -14.171875 C 12.222656 -15.304688 11.210938 -15.875 9.796875 -15.875 C 8.390625 -15.875 7.351562 -15.332031 6.6875 -14.25 C 6.019531 -13.164062 5.6875 -11.691406 5.6875 -9.828125 C 5.6875 -6.347656 6.328125 -4.164062 7.609375 -3.28125 C 8.171875 -2.882812 8.867188 -2.6875 9.703125 -2.6875 Z M 1.21875 -9.296875 C 1.21875 -11.117188 1.488281 -12.703125 2.03125 -14.046875 C 2.570312 -15.390625 3.296875 -16.414062 4.203125 -17.125 C 5.953125 -18.457031 7.882812 -19.125 10 -19.125 C 11.476562 -19.125 12.726562 -18.882812 13.75 -18.40625 C 14.769531 -17.925781 15.566406 -17.367188 16.140625 -16.734375 C 16.722656 -16.109375 17.21875 -15.195312 17.625 -14 C 18.03125 -12.8125 18.234375 -11.40625 18.234375 -9.78125 C 18.234375 -6.382812 17.410156 -3.8125 15.765625 -2.0625 C 14.117188 -0.320312 12.007812 0.546875 9.4375 0.546875 C 6.863281 0.546875 4.847656 -0.28125 3.390625 -1.9375 C 1.941406 -3.601562 1.21875 -6.054688 1.21875 -9.296875 Z M 1.21875 -9.296875 "/></g></g></g><g fill="#ffffff" fill-opacity="1"><g transform="translate(264.375384, 175.627835)"><g><path d="M 10.890625 -15.765625 C 10.296875 -15.984375 9.582031 -16.09375 8.75 -16.09375 C 7.914062 -16.09375 7.242188 -15.898438 6.734375 -15.515625 C 6.234375 -15.140625 5.984375 -14.675781 5.984375 -14.125 C 5.984375 -13.570312 6.070312 -13.140625 6.25 -12.828125 C 6.4375 -12.523438 6.726562 -12.257812 7.125 -12.03125 C 7.738281 -11.71875 8.476562 -11.441406 9.34375 -11.203125 C 10.207031 -10.972656 10.847656 -10.789062 11.265625 -10.65625 C 11.679688 -10.519531 12.203125 -10.289062 12.828125 -9.96875 C 13.453125 -9.644531 13.925781 -9.300781 14.25 -8.9375 C 15.113281 -8.019531 15.546875 -6.847656 15.546875 -5.421875 C 15.546875 -3.578125 14.875 -2.128906 13.53125 -1.078125 C 12.1875 -0.0351562 10.484375 0.484375 8.421875 0.484375 C 5.410156 0.484375 3.144531 0.0976562 1.625 -0.671875 L 1.625 -5.796875 L 4.953125 -6.0625 L 4.953125 -4.28125 C 4.953125 -3.195312 5.984375 -2.65625 8.046875 -2.65625 C 10.117188 -2.65625 11.15625 -3.40625 11.15625 -4.90625 C 11.15625 -5.445312 10.972656 -5.890625 10.609375 -6.234375 C 10.253906 -6.578125 9.90625 -6.8125 9.5625 -6.9375 C 9.21875 -7.0625 8.804688 -7.1875 8.328125 -7.3125 C 7.847656 -7.4375 7.378906 -7.554688 6.921875 -7.671875 C 6.460938 -7.796875 5.96875 -7.960938 5.4375 -8.171875 C 4.914062 -8.378906 4.332031 -8.679688 3.6875 -9.078125 C 2.4375 -9.890625 1.8125 -11.25 1.8125 -13.15625 C 1.8125 -15.070312 2.488281 -16.546875 3.84375 -17.578125 C 5.195312 -18.609375 6.898438 -19.125 8.953125 -19.125 C 11.003906 -19.125 13.039062 -18.632812 15.0625 -17.65625 L 15.0625 -13.21875 L 11.734375 -12.953125 L 11.734375 -14.515625 C 11.734375 -15.128906 11.453125 -15.546875 10.890625 -15.765625 Z M 10.890625 -15.765625 "/></g></g></g><g fill="#ffffff" fill-opacity="1"><g transform="translate(281.028445, 175.627835)"><g/></g></g><g fill="#ffffff" fill-opacity="1"><g transform="translate(156.710901, 227.26554)"><g><path d="M 8.890625 -3.328125 C 11.847656 -3.328125 13.328125 -4.507812 13.328125 -6.875 C 13.328125 -8.101562 12.675781 -9.007812 11.375 -9.59375 C 10.6875 -9.9375 9.789062 -10.253906 8.6875 -10.546875 C 7.59375 -10.847656 6.679688 -11.148438 5.953125 -11.453125 C 5.234375 -11.765625 4.503906 -12.191406 3.765625 -12.734375 C 2.316406 -13.816406 1.59375 -15.484375 1.59375 -17.734375 C 1.59375 -19.992188 2.375 -21.769531 3.9375 -23.0625 C 5.5 -24.351562 7.539062 -25 10.0625 -25 C 12.582031 -25 14.925781 -24.492188 17.09375 -23.484375 L 17.09375 -17.9375 L 13.328125 -17.6875 L 13.328125 -19.828125 C 13.328125 -20.191406 13.28125 -20.460938 13.1875 -20.640625 C 12.914062 -21.109375 12.046875 -21.34375 10.578125 -21.34375 C 9.109375 -21.34375 8.023438 -21.082031 7.328125 -20.5625 C 6.628906 -20.050781 6.28125 -19.253906 6.28125 -18.171875 C 6.28125 -17.378906 6.570312 -16.6875 7.15625 -16.09375 C 7.550781 -15.695312 8.132812 -15.367188 8.90625 -15.109375 C 9.6875 -14.859375 10.515625 -14.597656 11.390625 -14.328125 C 12.265625 -14.054688 13.039062 -13.757812 13.71875 -13.4375 C 14.394531 -13.113281 15.101562 -12.671875 15.84375 -12.109375 C 17.34375 -11.003906 18.09375 -9.289062 18.09375 -6.96875 C 18.09375 -4.65625 17.257812 -2.832031 15.59375 -1.5 C 13.9375 -0.175781 11.75 0.484375 9.03125 0.484375 C 6.3125 0.484375 3.867188 -0.0195312 1.703125 -1.03125 L 1.703125 -6.875 L 5.46875 -7.125 L 5.46875 -4.875 C 5.46875 -4.5 5.515625 -4.222656 5.609375 -4.046875 C 5.710938 -3.878906 6.015625 -3.71875 6.515625 -3.5625 C 7.023438 -3.40625 7.816406 -3.328125 8.890625 -3.328125 Z M 8.890625 -3.328125 "/></g></g></g><g fill="#ffffff" fill-opacity="1"><g transform="translate(175.98094, 227.26554)"><g><path d="M 9.703125 -2.6875 C 12.390625 -2.6875 13.734375 -4.851562 13.734375 -9.1875 C 13.734375 -11.382812 13.429688 -13.046875 12.828125 -14.171875 C 12.222656 -15.304688 11.210938 -15.875 9.796875 -15.875 C 8.390625 -15.875 7.351562 -15.332031 6.6875 -14.25 C 6.019531 -13.164062 5.6875 -11.691406 5.6875 -9.828125 C 5.6875 -6.347656 6.328125 -4.164062 7.609375 -3.28125 C 8.171875 -2.882812 8.867188 -2.6875 9.703125 -2.6875 Z M 1.21875 -9.296875 C 1.21875 -11.117188 1.488281 -12.703125 2.03125 -14.046875 C 2.570312 -15.390625 3.296875 -16.414062 4.203125 -17.125 C 5.953125 -18.457031 7.882812 -19.125 10 -19.125 C 11.476562 -19.125 12.726562 -18.882812 13.75 -18.40625 C 14.769531 -17.925781 15.566406 -17.367188 16.140625 -16.734375 C 16.722656 -16.109375 17.21875 -15.195312 17.625 -14 C 18.03125 -12.8125 18.234375 -11.40625 18.234375 -9.78125 C 18.234375 -6.382812 17.410156 -3.8125 15.765625 -2.0625 C 14.117188 -0.320312 12.007812 0.546875 9.4375 0.546875 C 6.863281 0.546875 4.847656 -0.28125 3.390625 -1.9375 C 1.941406 -3.601562 1.21875 -6.054688 1.21875 -9.296875 Z M 1.21875 -9.296875 "/></g></g></g><g fill="#ffffff" fill-opacity="1"><g transform="translate(195.472479, 227.26554)"><g><path d="M 7.828125 -26.328125 L 7.828125 -3.0625 L 9.9375 -2.953125 L 9.9375 0 L 1.140625 0 L 1.140625 -2.8125 L 2.359375 -2.921875 C 3.078125 -2.992188 3.4375 -3.382812 3.4375 -4.09375 L 3.4375 -22.296875 C 3.4375 -22.835938 3.128906 -23.132812 2.515625 -23.1875 L 1.21875 -23.265625 L 1.21875 -26.328125 Z M 7.828125 -26.328125 "/></g></g></g><g fill="#ffffff" fill-opacity="1"><g transform="translate(206.473381, 227.26554)"><g><path d="M 7.90625 -18.578125 L 7.90625 -3.0625 L 10 -2.953125 L 10 0 L 1.21875 0 L 1.21875 -2.8125 L 2.4375 -2.921875 C 3.144531 -2.992188 3.5 -3.382812 3.5 -4.09375 L 3.5 -14.359375 C 3.5 -14.773438 3.429688 -15.054688 3.296875 -15.203125 C 3.160156 -15.359375 2.921875 -15.4375 2.578125 -15.4375 L 1.296875 -15.5 L 1.296875 -18.578125 Z M 3.25 -21.765625 C 2.726562 -22.265625 2.46875 -22.910156 2.46875 -23.703125 C 2.46875 -24.492188 2.726562 -25.148438 3.25 -25.671875 C 3.769531 -26.203125 4.445312 -26.46875 5.28125 -26.46875 C 6.113281 -26.46875 6.796875 -26.203125 7.328125 -25.671875 C 7.859375 -25.148438 8.125 -24.492188 8.125 -23.703125 C 8.125 -22.910156 7.859375 -22.265625 7.328125 -21.765625 C 6.796875 -21.265625 6.113281 -21.015625 5.28125 -21.015625 C 4.445312 -21.015625 3.769531 -21.265625 3.25 -21.765625 Z M 3.25 -21.765625 "/></g></g></g><g fill="#ffffff" fill-opacity="1"><g transform="translate(217.400453, 227.26554)"><g><path d="M 10.484375 -19.125 C 11.546875 -19.125 12.554688 -18.976562 13.515625 -18.6875 L 13.515625 -22.40625 C 13.515625 -22.945312 13.191406 -23.242188 12.546875 -23.296875 L 10.96875 -23.40625 L 10.96875 -26.328125 L 17.828125 -26.328125 L 17.828125 -3.875 C 17.859375 -3.3125 18.164062 -3.03125 18.75 -3.03125 L 20.046875 -2.953125 L 20.046875 0 L 14.0625 0 L 14.0625 -2.171875 L 13.953125 -2.21875 C 12.847656 -0.414062 11.175781 0.484375 8.9375 0.484375 C 6.125 0.484375 4.15625 -0.453125 3.03125 -2.328125 C 2 -4.023438 1.484375 -6.101562 1.484375 -8.5625 C 1.484375 -11.757812 2.273438 -14.316406 3.859375 -16.234375 C 5.441406 -18.160156 7.648438 -19.125 10.484375 -19.125 Z M 13.515625 -5.765625 L 13.515625 -15.328125 C 12.628906 -15.710938 11.691406 -15.90625 10.703125 -15.90625 C 9.078125 -15.90625 7.890625 -15.253906 7.140625 -13.953125 C 6.390625 -12.648438 6.015625 -10.988281 6.015625 -8.96875 C 6.015625 -4.832031 7.34375 -2.765625 10 -2.765625 C 11.007812 -2.765625 11.847656 -3.050781 12.515625 -3.625 C 13.179688 -4.207031 13.515625 -4.921875 13.515625 -5.765625 Z M 13.515625 -5.765625 "/></g></g></g><g fill="#ffffff" fill-opacity="1"><g transform="translate(238.368622, 227.26554)"><g><path d="M 17.796875 -17.828125 L 17.796875 -4.09375 C 17.796875 -3.695312 17.863281 -3.425781 18 -3.28125 C 18.132812 -3.132812 18.375 -3.050781 18.71875 -3.03125 L 19.90625 -2.953125 L 19.90625 0 L 14.03125 0 L 14.03125 -2.140625 L 13.921875 -2.171875 C 12.691406 -0.398438 11.003906 0.484375 8.859375 0.484375 C 6.347656 0.484375 4.488281 -0.3125 3.28125 -1.90625 C 2.082031 -3.507812 1.484375 -5.703125 1.484375 -8.484375 C 1.484375 -11.835938 2.289062 -14.445312 3.90625 -16.3125 C 5.53125 -18.1875 7.96875 -19.125 11.21875 -19.125 C 13.3125 -19.125 15.503906 -18.691406 17.796875 -17.828125 Z M 13.515625 -5.875 L 13.515625 -15.4375 C 12.828125 -15.75 11.878906 -15.90625 10.671875 -15.90625 C 9.023438 -15.90625 7.832031 -15.238281 7.09375 -13.90625 C 6.351562 -12.582031 5.984375 -10.828125 5.984375 -8.640625 C 5.984375 -4.648438 7.265625 -2.65625 9.828125 -2.65625 C 10.910156 -2.65625 11.796875 -2.976562 12.484375 -3.625 C 13.171875 -4.28125 13.515625 -5.03125 13.515625 -5.875 Z M 7.90625 -21.9375 L 12.1875 -29.015625 L 13.921875 -28.203125 C 14.628906 -27.816406 14.984375 -27.375 14.984375 -26.875 C 14.984375 -26.382812 14.675781 -25.859375 14.0625 -25.296875 L 9.34375 -20.71875 Z M 7.90625 -21.9375 "/></g></g></g><g fill="#ffffff" fill-opacity="1"><g transform="translate(259.299878, 227.26554)"><g><path d="M 3.5 -4.140625 L 3.5 -14.359375 C 3.5 -14.753906 3.429688 -15.03125 3.296875 -15.1875 C 3.160156 -15.351562 2.921875 -15.445312 2.578125 -15.46875 L 1.03125 -15.578125 L 1.03125 -18.578125 L 7.28125 -18.578125 L 7.28125 -15.796875 C 7.71875 -16.765625 8.40625 -17.5625 9.34375 -18.1875 C 10.28125 -18.8125 11.359375 -19.125 12.578125 -19.125 C 13.796875 -19.125 14.957031 -18.851562 16.0625 -18.3125 L 16.0625 -12.8125 L 12.625 -12.546875 L 12.625 -14.25 C 12.625 -14.738281 12.503906 -15.046875 12.265625 -15.171875 C 11.992188 -15.296875 11.660156 -15.359375 11.265625 -15.359375 C 10.273438 -15.359375 9.46875 -15.003906 8.84375 -14.296875 C 8.21875 -13.597656 7.90625 -12.707031 7.90625 -11.625 L 7.90625 -3.0625 L 11.109375 -2.921875 L 11.109375 0 L 1.21875 0 L 1.21875 -2.8125 L 2.4375 -2.921875 C 2.800781 -2.960938 3.066406 -3.0625 3.234375 -3.21875 C 3.410156 -3.382812 3.5 -3.691406 3.5 -4.140625 Z M 3.5 -4.140625 "/></g></g></g><g fill="#ffffff" fill-opacity="1"><g transform="translate(276.354975, 227.26554)"><g><path d="M 7.90625 -18.578125 L 7.90625 -3.0625 L 10 -2.953125 L 10 0 L 1.21875 0 L 1.21875 -2.8125 L 2.4375 -2.921875 C 3.144531 -2.992188 3.5 -3.382812 3.5 -4.09375 L 3.5 -14.359375 C 3.5 -14.773438 3.429688 -15.054688 3.296875 -15.203125 C 3.160156 -15.359375 2.921875 -15.4375 2.578125 -15.4375 L 1.296875 -15.5 L 1.296875 -18.578125 Z M 3.25 -21.765625 C 2.726562 -22.265625 2.46875 -22.910156 2.46875 -23.703125 C 2.46875 -24.492188 2.726562 -25.148438 3.25 -25.671875 C 3.769531 -26.203125 4.445312 -26.46875 5.28125 -26.46875 C 6.113281 -26.46875 6.796875 -26.203125 7.328125 -25.671875 C 7.859375 -25.148438 8.125 -24.492188 8.125 -23.703125 C 8.125 -22.910156 7.859375 -22.265625 7.328125 -21.765625 C 6.796875 -21.265625 6.113281 -21.015625 5.28125 -21.015625 C 4.445312 -21.015625 3.769531 -21.265625 3.25 -21.765625 Z M 3.25 -21.765625 "/></g></g></g><g fill="#ffffff" fill-opacity="1"><g transform="translate(287.282041, 227.26554)"><g><path d="M 17.796875 -17.828125 L 17.796875 -4.09375 C 17.796875 -3.695312 17.863281 -3.425781 18 -3.28125 C 18.132812 -3.132812 18.375 -3.050781 18.71875 -3.03125 L 19.90625 -2.953125 L 19.90625 0 L 14.03125 0 L 14.03125 -2.140625 L 13.921875 -2.171875 C 12.691406 -0.398438 11.003906 0.484375 8.859375 0.484375 C 6.347656 0.484375 4.488281 -0.3125 3.28125 -1.90625 C 2.082031 -3.507812 1.484375 -5.703125 1.484375 -8.484375 C 1.484375 -11.835938 2.289062 -14.445312 3.90625 -16.3125 C 5.53125 -18.1875 7.96875 -19.125 11.21875 -19.125 C 13.3125 -19.125 15.503906 -18.691406 17.796875 -17.828125 Z M 13.515625 -5.875 L 13.515625 -15.4375 C 12.828125 -15.75 11.878906 -15.90625 10.671875 -15.90625 C 9.023438 -15.90625 7.832031 -15.238281 7.09375 -13.90625 C 6.351562 -12.582031 5.984375 -10.828125 5.984375 -8.640625 C 5.984375 -4.648438 7.265625 -2.65625 9.828125 -2.65625 C 10.910156 -2.65625 11.796875 -2.976562 12.484375 -3.625 C 13.171875 -4.28125 13.515625 -5.03125 13.515625 -5.875 Z M 13.515625 -5.875 "/></g></g></g><g fill="#ffffff" fill-opacity="1"><g transform="translate(308.213291, 227.26554)"><g><path d="M 10.890625 -15.765625 C 10.296875 -15.984375 9.582031 -16.09375 8.75 -16.09375 C 7.914062 -16.09375 7.242188 -15.898438 6.734375 -15.515625 C 6.234375 -15.140625 5.984375 -14.675781 5.984375 -14.125 C 5.984375 -13.570312 6.070312 -13.140625 6.25 -12.828125 C 6.4375 -12.523438 6.726562 -12.257812 7.125 -12.03125 C 7.738281 -11.71875 8.476562 -11.441406 9.34375 -11.203125 C 10.207031 -10.972656 10.847656 -10.789062 11.265625 -10.65625 C 11.679688 -10.519531 12.203125 -10.289062 12.828125 -9.96875 C 13.453125 -9.644531 13.925781 -9.300781 14.25 -8.9375 C 15.113281 -8.019531 15.546875 -6.847656 15.546875 -5.421875 C 15.546875 -3.578125 14.875 -2.128906 13.53125 -1.078125 C 12.1875 -0.0351562 10.484375 0.484375 8.421875 0.484375 C 5.410156 0.484375 3.144531 0.0976562 1.625 -0.671875 L 1.625 -5.796875 L 4.953125 -6.0625 L 4.953125 -4.28125 C 4.953125 -3.195312 5.984375 -2.65625 8.046875 -2.65625 C 10.117188 -2.65625 11.15625 -3.40625 11.15625 -4.90625 C 11.15625 -5.445312 10.972656 -5.890625 10.609375 -6.234375 C 10.253906 -6.578125 9.90625 -6.8125 9.5625 -6.9375 C 9.21875 -7.0625 8.804688 -7.1875 8.328125 -7.3125 C 7.847656 -7.4375 7.378906 -7.554688 6.921875 -7.671875 C 6.460938 -7.796875 5.96875 -7.960938 5.4375 -8.171875 C 4.914062 -8.378906 4.332031 -8.679688 3.6875 -9.078125 C 2.4375 -9.890625 1.8125 -11.25 1.8125 -13.15625 C 1.8125 -15.070312 2.488281 -16.546875 3.84375 -17.578125 C 5.195312 -18.609375 6.898438 -19.125 8.953125 -19.125 C 11.003906 -19.125 13.039062 -18.632812 15.0625 -17.65625 L 15.0625 -13.21875 L 11.734375 -12.953125 L 11.734375 -14.515625 C 11.734375 -15.128906 11.453125 -15.546875 10.890625 -15.765625 Z M 10.890625 -15.765625 "/></g></g></g></svg>