<svg xmlns="http://www.w3.org/2000/svg" xmlns:xlink="http://www.w3.org/1999/xlink" width="232" zoomAndPan="magnify" viewBox="0 0 174 50.999998" height="68" preserveAspectRatio="xMidYMid meet" version="1.0"><defs><g/><clipPath id="aa48f77980"><path d="M 9.285156 6.875 L 46.785156 6.875 L 46.785156 44.375 L 9.285156 44.375 Z M 9.285156 6.875 " clip-rule="nonzero"/></clipPath></defs><g clip-path="url(#aa48f77980)"><path fill="#004aad" d="M 46.339844 43.378906 C 45.117188 42.582031 43.96875 41.707031 42.753906 40.78125 C 40.1875 38.824219 37.53125 36.804688 34.171875 35.636719 C 33.125 35.269531 31.109375 34.824219 29.625 34.515625 C 33.570312 33.273438 36.933594 30.207031 39.042969 28.28125 C 39.414062 27.945312 39.746094 27.640625 40.035156 27.390625 C 40.761719 26.761719 41.332031 26.171875 41.777344 25.609375 C 42.457031 26.027344 44.199219 27.082031 45.921875 28.070312 C 45.988281 28.105469 46.054688 28.121094 46.125 28.121094 C 46.261719 28.121094 46.398438 28.050781 46.476562 27.917969 C 46.585938 27.726562 46.519531 27.480469 46.324219 27.367188 C 44.652344 26.414062 42.960938 25.386719 42.25 24.953125 C 42.984375 23.78125 43.066406 22.75 42.507812 21.804688 C 42.109375 21.136719 41.714844 20.761719 41.394531 20.546875 C 41.984375 19.828125 41.988281 18.976562 41.402344 17.972656 C 41.113281 17.476562 40.746094 16.96875 40.265625 16.683594 C 40.523438 16.285156 40.628906 15.710938 40.542969 15.066406 C 40.429688 14.226562 39.976562 13.175781 39.03125 12.734375 C 38.902344 12.671875 38.75 12.636719 38.585938 12.613281 C 38.851562 12.003906 38.960938 11.136719 38.421875 10.183594 C 37.347656 8.296875 34.746094 8.664062 32.902344 9.128906 C 32.417969 8.558594 31.054688 7.078125 29.917969 6.964844 C 29.164062 6.890625 28.285156 7.46875 27.886719 7.765625 C 26.417969 7.011719 25.152344 7.1875 24.671875 7.304688 C 23.929688 7.484375 23.207031 8.027344 22.445312 8.605469 C 21.679688 9.183594 20.882812 9.78125 20.167969 9.894531 C 19.570312 9.984375 19.148438 10.234375 18.90625 10.640625 C 18.761719 10.886719 18.710938 11.144531 18.703125 11.371094 C 18.074219 11.265625 17.09375 11.273438 16.308594 12.0625 C 15.699219 12.671875 15.019531 13.722656 15.113281 14.683594 C 15.132812 14.910156 15.203125 15.121094 15.308594 15.308594 C 14.832031 15.472656 14.425781 15.757812 14.128906 16.21875 C 13.457031 17.246094 13.21875 18.039062 13.375 18.710938 C 13.460938 19.085938 13.671875 19.414062 14.007812 19.699219 C 13.976562 19.730469 13.933594 19.75 13.902344 19.78125 C 13.332031 20.414062 13.042969 21.378906 13.199219 22.132812 C 13.238281 22.34375 13.324219 22.527344 13.429688 22.691406 C 12.363281 23.558594 12.320312 24.96875 12.503906 25.851562 L 9.542969 27.804688 C 9.359375 27.925781 9.308594 28.175781 9.429688 28.363281 C 9.507812 28.480469 9.636719 28.542969 9.765625 28.542969 C 9.84375 28.542969 9.921875 28.523438 9.988281 28.476562 L 13.105469 26.425781 C 13.175781 26.394531 13.238281 26.351562 13.28125 26.277344 C 13.285156 26.277344 13.601562 25.992188 14.910156 26.269531 C 15.785156 26.457031 16.519531 26.339844 17.09375 25.925781 C 17.628906 25.539062 17.890625 24.984375 18.019531 24.585938 C 18.441406 24.722656 18.828125 24.785156 19.164062 24.785156 C 19.613281 24.785156 19.972656 24.683594 20.21875 24.535156 C 20.535156 24.347656 21.5 23.277344 21.417969 22.1875 C 21.40625 22.023438 21.367188 21.832031 21.277344 21.640625 C 21.683594 21.550781 22.15625 21.316406 22.492188 20.753906 C 23.09375 19.746094 23.03125 18.816406 22.332031 17.945312 C 23.574219 17.367188 23.808594 15.925781 23.738281 15.195312 C 23.71875 14.972656 23.515625 14.808594 23.300781 14.828125 C 23.078125 14.851562 22.914062 15.046875 22.933594 15.269531 C 22.9375 15.285156 23.070312 16.894531 21.824219 17.296875 C 21.789062 17.308594 21.765625 17.328125 21.738281 17.347656 C 21.492188 17.140625 21.222656 16.933594 20.894531 16.734375 C 19.441406 15.832031 17.664062 15.105469 16.222656 15.148438 C 16.046875 15.003906 15.9375 14.828125 15.914062 14.605469 C 15.855469 13.972656 16.371094 13.140625 16.878906 12.632812 C 17.5625 11.949219 18.488281 12.125 18.859375 12.234375 C 19.148438 13.070312 20.019531 14.359375 21.761719 14.390625 C 21.785156 14.390625 21.808594 14.390625 21.832031 14.390625 C 22.863281 14.390625 23.640625 13.972656 24.324219 13.601562 C 25.160156 13.152344 25.667969 12.910156 26.316406 13.226562 C 26.449219 13.289062 26.613281 13.273438 26.730469 13.1875 C 26.765625 13.164062 29.980469 10.796875 32.070312 10.195312 C 34.488281 9.492188 36.847656 9.054688 37.71875 10.585938 C 38.285156 11.582031 37.863281 12.34375 37.660156 12.621094 C 36.109375 12.820312 34.148438 13.753906 33.863281 13.894531 C 33.660156 13.992188 33.578125 14.234375 33.675781 14.433594 C 33.773438 14.636719 34.015625 14.71875 34.214844 14.621094 C 35.1875 14.148438 36.730469 13.546875 37.789062 13.410156 C 37.863281 13.421875 37.9375 13.421875 38.003906 13.394531 C 38.28125 13.375 38.523438 13.386719 38.6875 13.464844 C 39.335938 13.769531 39.660156 14.574219 39.742188 15.171875 C 39.8125 15.699219 39.710938 16.179688 39.492188 16.367188 C 39.457031 16.394531 39.433594 16.433594 39.410156 16.46875 C 39.25 16.480469 39.082031 16.503906 38.902344 16.570312 C 38.050781 16.875 36.199219 17.875 36.117188 17.917969 C 35.921875 18.027344 35.851562 18.269531 35.957031 18.46875 C 36.0625 18.664062 36.308594 18.734375 36.503906 18.628906 C 36.523438 18.621094 38.382812 17.613281 39.171875 17.332031 C 39.652344 17.160156 40.058594 17.273438 40.703125 18.378906 C 41.246094 19.308594 41.140625 19.871094 40.3125 20.460938 C 39.445312 21.078125 37.179688 22.375 37.15625 22.390625 C 36.964844 22.5 36.898438 22.746094 37.007812 22.941406 C 37.082031 23.070312 37.21875 23.144531 37.359375 23.144531 C 37.425781 23.144531 37.496094 23.125 37.558594 23.089844 C 37.652344 23.035156 39.878906 21.761719 40.78125 21.121094 C 40.980469 21.214844 41.375 21.484375 41.8125 22.214844 C 42.28125 23.003906 42.441406 24.234375 39.503906 26.78125 C 39.210938 27.035156 38.875 27.34375 38.5 27.6875 C 36.171875 29.808594 32.28125 33.363281 27.878906 34.117188 C 27.816406 34.128906 27.753906 34.144531 27.691406 34.15625 C 27.667969 34.160156 27.644531 34.167969 27.617188 34.175781 C 25.136719 34.664062 22.710938 36.089844 19.914062 37.738281 C 16.992188 39.464844 13.679688 41.417969 9.652344 42.609375 C 9.4375 42.675781 9.316406 42.898438 9.378906 43.113281 C 9.433594 43.289062 9.59375 43.402344 9.765625 43.402344 C 9.804688 43.402344 9.84375 43.398438 9.882812 43.386719 C 14.003906 42.164062 17.363281 40.183594 20.328125 38.433594 C 23.050781 36.824219 25.417969 35.4375 27.761719 34.96875 C 28.40625 35.09375 32.351562 35.855469 33.90625 36.398438 C 37.144531 37.523438 39.746094 39.507812 42.265625 41.425781 C 43.4375 42.320312 44.652344 43.246094 45.902344 44.058594 C 45.96875 44.101562 46.046875 44.121094 46.121094 44.121094 C 46.253906 44.121094 46.382812 44.058594 46.460938 43.9375 C 46.582031 43.75 46.527344 43.5 46.339844 43.378906 Z M 16.617188 25.273438 C 16.234375 25.546875 15.714844 25.617188 15.078125 25.480469 C 14.199219 25.292969 13.625 25.320312 13.253906 25.417969 C 13.179688 24.8125 13.214844 23.808594 14.050781 23.230469 C 14.070312 23.238281 14.089844 23.246094 14.113281 23.253906 C 14.132812 23.257812 16.078125 23.710938 17.269531 24.28125 C 17.1875 24.566406 17.003906 25 16.617188 25.273438 Z M 19.804688 23.84375 C 19.539062 24.003906 18.789062 24.128906 17.679688 23.582031 C 16.496094 23 14.660156 22.550781 14.339844 22.476562 C 14.152344 22.378906 14.039062 22.214844 13.988281 21.972656 C 13.886719 21.46875 14.105469 20.761719 14.503906 20.324219 C 14.671875 20.132812 15.574219 19.648438 19.882812 21.441406 C 20.566406 21.722656 20.601562 22.105469 20.613281 22.234375 C 20.671875 22.886719 19.996094 23.71875 19.804688 23.84375 Z M 20.46875 17.417969 C 22.710938 18.808594 22.09375 19.84375 21.796875 20.339844 C 21.402344 21.003906 20.648438 20.886719 20.617188 20.878906 L 20.609375 20.914062 C 20.488281 20.835938 20.355469 20.761719 20.191406 20.695312 C 17.636719 19.632812 15.894531 19.195312 14.832031 19.351562 L 14.851562 19.316406 C 14.449219 19.074219 14.230469 18.824219 14.160156 18.527344 C 14.058594 18.089844 14.269531 17.480469 14.804688 16.65625 C 15.679688 15.3125 18.355469 16.109375 20.46875 17.417969 Z M 26.4375 12.402344 C 25.492188 12.058594 24.703125 12.480469 23.941406 12.890625 C 23.296875 13.242188 22.589844 13.59375 21.777344 13.582031 C 20.03125 13.550781 19.589844 11.886719 19.5625 11.777344 C 19.558594 11.773438 19.421875 11.351562 19.601562 11.054688 C 19.710938 10.867188 19.945312 10.746094 20.289062 10.691406 C 21.210938 10.550781 22.085938 9.890625 22.933594 9.25 C 23.628906 8.726562 24.28125 8.230469 24.863281 8.089844 C 25.058594 8.042969 25.335938 7.996094 25.667969 7.996094 C 26.664062 7.996094 28.171875 8.402344 29.652344 10.371094 C 28.246094 11.128906 26.921875 12.054688 26.4375 12.402344 Z M 30.375 10 C 30.363281 9.976562 30.347656 9.957031 30.332031 9.933594 C 29.773438 9.179688 29.199219 8.628906 28.636719 8.226562 C 29.027344 7.972656 29.507812 7.742188 29.835938 7.769531 C 30.445312 7.832031 31.375 8.652344 32.03125 9.363281 C 31.96875 9.382812 31.902344 9.402344 31.847656 9.417969 C 31.386719 9.550781 30.882812 9.757812 30.375 10 Z M 30.375 10 " fill-opacity="1" fill-rule="nonzero"/></g><g fill="#004aad" fill-opacity="1"><g transform="translate(55.78023, 31.499997)"><g><path d="M 3.71875 -9.96875 L 6.265625 -3.1875 L 6.296875 -3.1875 L 8.859375 -9.96875 L 11.828125 -9.96875 L 11.828125 -8.765625 L 11.34375 -8.71875 C 11.039062 -8.6875 10.894531 -8.507812 10.90625 -8.1875 L 11.28125 -1.3125 L 12.203125 -1.28125 L 12.203125 0 L 8.59375 0 L 8.59375 -1.21875 L 9.140625 -1.265625 C 9.410156 -1.285156 9.539062 -1.414062 9.53125 -1.65625 L 9.234375 -6.9375 L 9.203125 -6.9375 L 6.90625 -0.953125 L 5.46875 -0.953125 L 3.1875 -6.890625 L 3.171875 -6.890625 L 2.859375 -1.3125 L 3.84375 -1.28125 L 3.84375 0 L 0.296875 0 L 0.296875 -1.21875 L 0.84375 -1.265625 C 1.070312 -1.285156 1.195312 -1.421875 1.21875 -1.671875 L 1.625 -8.640625 L 0.703125 -8.703125 L 0.703125 -9.96875 Z M 3.71875 -9.96875 "/></g></g></g><g fill="#004aad" fill-opacity="1"><g transform="translate(68.290212, 31.499997)"><g><path d="M 7.234375 -7.25 L 7.234375 -1.671875 C 7.234375 -1.503906 7.257812 -1.390625 7.3125 -1.328125 C 7.363281 -1.273438 7.460938 -1.242188 7.609375 -1.234375 L 8.078125 -1.203125 L 8.078125 0 L 5.703125 0 L 5.703125 -0.875 L 5.65625 -0.890625 C 5.15625 -0.171875 4.46875 0.1875 3.59375 0.1875 C 2.570312 0.1875 1.816406 -0.132812 1.328125 -0.78125 C 0.835938 -1.425781 0.59375 -2.316406 0.59375 -3.453125 C 0.59375 -4.804688 0.921875 -5.863281 1.578125 -6.625 C 2.242188 -7.382812 3.238281 -7.765625 4.5625 -7.765625 C 5.40625 -7.765625 6.296875 -7.59375 7.234375 -7.25 Z M 5.484375 -2.390625 L 5.484375 -6.265625 C 5.203125 -6.398438 4.816406 -6.46875 4.328125 -6.46875 C 3.660156 -6.46875 3.175781 -6.195312 2.875 -5.65625 C 2.582031 -5.113281 2.4375 -4.398438 2.4375 -3.515625 C 2.4375 -1.890625 2.953125 -1.078125 3.984375 -1.078125 C 4.429688 -1.078125 4.789062 -1.207031 5.0625 -1.46875 C 5.34375 -1.738281 5.484375 -2.046875 5.484375 -2.390625 Z M 2.625 -8.9375 L 1.90625 -9.46875 C 2.257812 -10.257812 2.769531 -10.65625 3.4375 -10.65625 C 3.675781 -10.65625 4.023438 -10.582031 4.484375 -10.4375 C 4.941406 -10.300781 5.273438 -10.234375 5.484375 -10.234375 C 5.703125 -10.234375 5.910156 -10.390625 6.109375 -10.703125 L 6.921875 -10.28125 C 6.585938 -9.40625 6.070312 -8.96875 5.375 -8.96875 C 5.15625 -8.96875 4.820312 -9.035156 4.375 -9.171875 C 3.9375 -9.304688 3.628906 -9.375 3.453125 -9.375 C 3.273438 -9.375 3.128906 -9.34375 3.015625 -9.28125 C 2.910156 -9.226562 2.78125 -9.113281 2.625 -8.9375 Z M 2.625 -8.9375 "/></g></g></g><g fill="#004aad" fill-opacity="1"><g transform="translate(76.795209, 31.499997)"><g><path d="M 3.9375 -1.09375 C 5.03125 -1.09375 5.578125 -1.972656 5.578125 -3.734375 C 5.578125 -4.617188 5.453125 -5.289062 5.203125 -5.75 C 4.960938 -6.21875 4.554688 -6.453125 3.984375 -6.453125 C 3.410156 -6.453125 2.988281 -6.226562 2.71875 -5.78125 C 2.445312 -5.34375 2.3125 -4.742188 2.3125 -3.984375 C 2.3125 -2.578125 2.570312 -1.691406 3.09375 -1.328125 C 3.320312 -1.171875 3.601562 -1.09375 3.9375 -1.09375 Z M 0.5 -3.78125 C 0.5 -4.519531 0.609375 -5.160156 0.828125 -5.703125 C 1.046875 -6.253906 1.335938 -6.671875 1.703125 -6.953125 C 2.421875 -7.492188 3.207031 -7.765625 4.0625 -7.765625 C 4.664062 -7.765625 5.171875 -7.664062 5.578125 -7.46875 C 5.992188 -7.28125 6.320312 -7.054688 6.5625 -6.796875 C 6.800781 -6.546875 7 -6.175781 7.15625 -5.6875 C 7.320312 -5.207031 7.40625 -4.632812 7.40625 -3.96875 C 7.40625 -2.59375 7.070312 -1.550781 6.40625 -0.84375 C 5.738281 -0.132812 4.878906 0.21875 3.828125 0.21875 C 2.785156 0.21875 1.96875 -0.113281 1.375 -0.78125 C 0.789062 -1.457031 0.5 -2.457031 0.5 -3.78125 Z M 0.5 -3.78125 "/></g></g></g><g fill="#004aad" fill-opacity="1"><g transform="translate(84.715206, 31.499997)"><g><path d="M 4.421875 -6.40625 C 4.179688 -6.5 3.890625 -6.546875 3.546875 -6.546875 C 3.210938 -6.546875 2.941406 -6.46875 2.734375 -6.3125 C 2.535156 -6.15625 2.4375 -5.960938 2.4375 -5.734375 C 2.4375 -5.515625 2.472656 -5.34375 2.546875 -5.21875 C 2.617188 -5.09375 2.734375 -4.984375 2.890625 -4.890625 C 3.140625 -4.753906 3.4375 -4.640625 3.78125 -4.546875 C 4.132812 -4.453125 4.394531 -4.378906 4.5625 -4.328125 C 4.738281 -4.273438 4.953125 -4.179688 5.203125 -4.046875 C 5.460938 -3.921875 5.660156 -3.78125 5.796875 -3.625 C 6.140625 -3.257812 6.3125 -2.785156 6.3125 -2.203125 C 6.3125 -1.453125 6.039062 -0.863281 5.5 -0.4375 C 4.957031 -0.0195312 4.265625 0.1875 3.421875 0.1875 C 2.203125 0.1875 1.28125 0.0351562 0.65625 -0.265625 L 0.65625 -2.359375 L 2.015625 -2.453125 L 2.015625 -1.734375 C 2.015625 -1.296875 2.429688 -1.078125 3.265625 -1.078125 C 4.109375 -1.078125 4.53125 -1.382812 4.53125 -2 C 4.53125 -2.21875 4.457031 -2.394531 4.3125 -2.53125 C 4.164062 -2.675781 4.019531 -2.769531 3.875 -2.8125 C 3.738281 -2.863281 3.570312 -2.914062 3.375 -2.96875 C 3.1875 -3.019531 3 -3.066406 2.8125 -3.109375 C 2.625 -3.160156 2.421875 -3.226562 2.203125 -3.3125 C 1.992188 -3.40625 1.757812 -3.53125 1.5 -3.6875 C 0.988281 -4.019531 0.734375 -4.570312 0.734375 -5.34375 C 0.734375 -6.125 1.007812 -6.722656 1.5625 -7.140625 C 2.113281 -7.554688 2.804688 -7.765625 3.640625 -7.765625 C 4.472656 -7.765625 5.300781 -7.566406 6.125 -7.171875 L 6.125 -5.375 L 4.765625 -5.265625 L 4.765625 -5.890625 C 4.765625 -6.140625 4.648438 -6.3125 4.421875 -6.40625 Z M 4.421875 -6.40625 "/></g></g></g><g fill="#004aad" fill-opacity="1"><g transform="translate(91.480197, 31.499997)"><g/></g><g transform="translate(94.480197, 31.499997)"><g><path d="M 3.609375 -1.34375 C 4.816406 -1.34375 5.421875 -1.828125 5.421875 -2.796875 C 5.421875 -3.296875 5.15625 -3.664062 4.625 -3.90625 C 4.34375 -4.039062 3.976562 -4.164062 3.53125 -4.28125 C 3.082031 -4.40625 2.710938 -4.53125 2.421875 -4.65625 C 2.128906 -4.78125 1.832031 -4.953125 1.53125 -5.171875 C 0.9375 -5.609375 0.640625 -6.285156 0.640625 -7.203125 C 0.640625 -8.117188 0.957031 -8.835938 1.59375 -9.359375 C 2.226562 -9.890625 3.054688 -10.15625 4.078125 -10.15625 C 5.109375 -10.15625 6.0625 -9.953125 6.9375 -9.546875 L 6.9375 -7.296875 L 5.421875 -7.1875 L 5.421875 -8.0625 C 5.421875 -8.207031 5.398438 -8.316406 5.359375 -8.390625 C 5.242188 -8.578125 4.890625 -8.671875 4.296875 -8.671875 C 3.703125 -8.671875 3.257812 -8.566406 2.96875 -8.359375 C 2.6875 -8.148438 2.546875 -7.820312 2.546875 -7.375 C 2.546875 -7.0625 2.664062 -6.785156 2.90625 -6.546875 C 3.070312 -6.378906 3.3125 -6.242188 3.625 -6.140625 C 3.9375 -6.035156 4.269531 -5.925781 4.625 -5.8125 C 4.976562 -5.707031 5.289062 -5.585938 5.5625 -5.453125 C 5.84375 -5.328125 6.132812 -5.148438 6.4375 -4.921875 C 7.039062 -4.472656 7.34375 -3.773438 7.34375 -2.828125 C 7.34375 -1.890625 7.003906 -1.148438 6.328125 -0.609375 C 5.660156 -0.078125 4.773438 0.1875 3.671875 0.1875 C 2.566406 0.1875 1.570312 -0.015625 0.6875 -0.421875 L 0.6875 -2.796875 L 2.21875 -2.890625 L 2.21875 -1.984375 C 2.21875 -1.828125 2.238281 -1.710938 2.28125 -1.640625 C 2.320312 -1.578125 2.441406 -1.507812 2.640625 -1.4375 C 2.847656 -1.375 3.171875 -1.34375 3.609375 -1.34375 Z M 3.609375 -1.34375 "/></g></g></g><g fill="#004aad" fill-opacity="1"><g transform="translate(102.310187, 31.499997)"><g><path d="M 3.9375 -1.09375 C 5.03125 -1.09375 5.578125 -1.972656 5.578125 -3.734375 C 5.578125 -4.617188 5.453125 -5.289062 5.203125 -5.75 C 4.960938 -6.21875 4.554688 -6.453125 3.984375 -6.453125 C 3.410156 -6.453125 2.988281 -6.226562 2.71875 -5.78125 C 2.445312 -5.34375 2.3125 -4.742188 2.3125 -3.984375 C 2.3125 -2.578125 2.570312 -1.691406 3.09375 -1.328125 C 3.320312 -1.171875 3.601562 -1.09375 3.9375 -1.09375 Z M 0.5 -3.78125 C 0.5 -4.519531 0.609375 -5.160156 0.828125 -5.703125 C 1.046875 -6.253906 1.335938 -6.671875 1.703125 -6.953125 C 2.421875 -7.492188 3.207031 -7.765625 4.0625 -7.765625 C 4.664062 -7.765625 5.171875 -7.664062 5.578125 -7.46875 C 5.992188 -7.28125 6.320312 -7.054688 6.5625 -6.796875 C 6.800781 -6.546875 7 -6.175781 7.15625 -5.6875 C 7.320312 -5.207031 7.40625 -4.632812 7.40625 -3.96875 C 7.40625 -2.59375 7.070312 -1.550781 6.40625 -0.84375 C 5.738281 -0.132812 4.878906 0.21875 3.828125 0.21875 C 2.785156 0.21875 1.96875 -0.113281 1.375 -0.78125 C 0.789062 -1.457031 0.5 -2.457031 0.5 -3.78125 Z M 0.5 -3.78125 "/></g></g></g><g fill="#004aad" fill-opacity="1"><g transform="translate(110.230185, 31.499997)"><g><path d="M 3.1875 -10.6875 L 3.1875 -1.25 L 4.03125 -1.203125 L 4.03125 0 L 0.46875 0 L 0.46875 -1.140625 L 0.953125 -1.1875 C 1.242188 -1.21875 1.390625 -1.378906 1.390625 -1.671875 L 1.390625 -9.0625 C 1.390625 -9.28125 1.265625 -9.398438 1.015625 -9.421875 L 0.5 -9.453125 L 0.5 -10.6875 Z M 3.1875 -10.6875 "/></g></g></g><g fill="#004aad" fill-opacity="1"><g transform="translate(114.700178, 31.499997)"><g><path d="M 3.203125 -7.546875 L 3.203125 -1.25 L 4.0625 -1.203125 L 4.0625 0 L 0.5 0 L 0.5 -1.140625 L 0.984375 -1.1875 C 1.273438 -1.21875 1.421875 -1.378906 1.421875 -1.671875 L 1.421875 -5.828125 C 1.421875 -6.003906 1.394531 -6.117188 1.34375 -6.171875 C 1.289062 -6.234375 1.191406 -6.265625 1.046875 -6.265625 L 0.53125 -6.296875 L 0.53125 -7.546875 Z M 1.3125 -8.84375 C 1.101562 -9.050781 1 -9.3125 1 -9.625 C 1 -9.945312 1.101562 -10.210938 1.3125 -10.421875 C 1.53125 -10.640625 1.804688 -10.75 2.140625 -10.75 C 2.484375 -10.75 2.757812 -10.640625 2.96875 -10.421875 C 3.1875 -10.210938 3.296875 -9.945312 3.296875 -9.625 C 3.296875 -9.3125 3.1875 -9.050781 2.96875 -8.84375 C 2.757812 -8.632812 2.484375 -8.53125 2.140625 -8.53125 C 1.804688 -8.53125 1.53125 -8.632812 1.3125 -8.84375 Z M 1.3125 -8.84375 "/></g></g></g><g fill="#004aad" fill-opacity="1"><g transform="translate(119.140176, 31.499997)"><g><path d="M 4.265625 -7.765625 C 4.691406 -7.765625 5.097656 -7.707031 5.484375 -7.59375 L 5.484375 -9.109375 C 5.484375 -9.328125 5.351562 -9.445312 5.09375 -9.46875 L 4.453125 -9.515625 L 4.453125 -10.6875 L 7.25 -10.6875 L 7.25 -1.578125 C 7.257812 -1.347656 7.382812 -1.234375 7.625 -1.234375 L 8.140625 -1.203125 L 8.140625 0 L 5.71875 0 L 5.71875 -0.890625 L 5.671875 -0.90625 C 5.222656 -0.175781 4.539062 0.1875 3.625 0.1875 C 2.488281 0.1875 1.691406 -0.1875 1.234375 -0.9375 C 0.804688 -1.632812 0.59375 -2.484375 0.59375 -3.484375 C 0.59375 -4.785156 0.914062 -5.820312 1.5625 -6.59375 C 2.207031 -7.375 3.109375 -7.765625 4.265625 -7.765625 Z M 5.484375 -2.34375 L 5.484375 -6.21875 C 5.128906 -6.382812 4.75 -6.46875 4.34375 -6.46875 C 3.6875 -6.46875 3.203125 -6.203125 2.890625 -5.671875 C 2.585938 -5.140625 2.4375 -4.460938 2.4375 -3.640625 C 2.4375 -1.960938 2.976562 -1.125 4.0625 -1.125 C 4.476562 -1.125 4.816406 -1.238281 5.078125 -1.46875 C 5.347656 -1.707031 5.484375 -2 5.484375 -2.34375 Z M 5.484375 -2.34375 "/></g></g></g><g fill="#004aad" fill-opacity="1"><g transform="translate(127.660164, 31.499997)"><g><path d="M 7.234375 -7.25 L 7.234375 -1.671875 C 7.234375 -1.503906 7.257812 -1.390625 7.3125 -1.328125 C 7.363281 -1.273438 7.460938 -1.242188 7.609375 -1.234375 L 8.078125 -1.203125 L 8.078125 0 L 5.703125 0 L 5.703125 -0.875 L 5.65625 -0.890625 C 5.15625 -0.171875 4.46875 0.1875 3.59375 0.1875 C 2.570312 0.1875 1.816406 -0.132812 1.328125 -0.78125 C 0.835938 -1.425781 0.59375 -2.316406 0.59375 -3.453125 C 0.59375 -4.804688 0.921875 -5.863281 1.578125 -6.625 C 2.242188 -7.382812 3.238281 -7.765625 4.5625 -7.765625 C 5.40625 -7.765625 6.296875 -7.59375 7.234375 -7.25 Z M 5.484375 -2.390625 L 5.484375 -6.265625 C 5.203125 -6.398438 4.816406 -6.46875 4.328125 -6.46875 C 3.660156 -6.46875 3.175781 -6.195312 2.875 -5.65625 C 2.582031 -5.113281 2.4375 -4.398438 2.4375 -3.515625 C 2.4375 -1.890625 2.953125 -1.078125 3.984375 -1.078125 C 4.429688 -1.078125 4.789062 -1.207031 5.0625 -1.46875 C 5.34375 -1.738281 5.484375 -2.046875 5.484375 -2.390625 Z M 3.203125 -8.90625 L 4.953125 -11.796875 L 5.65625 -11.453125 C 5.945312 -11.296875 6.09375 -11.117188 6.09375 -10.921875 C 6.09375 -10.722656 5.96875 -10.507812 5.71875 -10.28125 L 3.796875 -8.421875 Z M 3.203125 -8.90625 "/></g></g></g><g fill="#004aad" fill-opacity="1"><g transform="translate(136.165161, 31.499997)"><g><path d="M 1.421875 -1.6875 L 1.421875 -5.828125 C 1.421875 -5.992188 1.394531 -6.109375 1.34375 -6.171875 C 1.289062 -6.234375 1.191406 -6.269531 1.046875 -6.28125 L 0.421875 -6.328125 L 0.421875 -7.546875 L 2.953125 -7.546875 L 2.953125 -6.421875 C 3.128906 -6.804688 3.40625 -7.125 3.78125 -7.375 C 4.164062 -7.632812 4.601562 -7.765625 5.09375 -7.765625 C 5.59375 -7.765625 6.070312 -7.65625 6.53125 -7.4375 L 6.53125 -5.203125 L 5.125 -5.09375 L 5.125 -5.796875 C 5.125 -5.992188 5.078125 -6.117188 4.984375 -6.171875 C 4.867188 -6.210938 4.734375 -6.234375 4.578125 -6.234375 C 4.171875 -6.234375 3.835938 -6.09375 3.578125 -5.8125 C 3.328125 -5.53125 3.203125 -5.164062 3.203125 -4.71875 L 3.203125 -1.25 L 4.515625 -1.1875 L 4.515625 0 L 0.5 0 L 0.5 -1.140625 L 0.984375 -1.1875 C 1.140625 -1.207031 1.25 -1.25 1.3125 -1.3125 C 1.382812 -1.375 1.421875 -1.5 1.421875 -1.6875 Z M 1.421875 -1.6875 "/></g></g></g><g fill="#004aad" fill-opacity="1"><g transform="translate(143.095153, 31.499997)"><g><path d="M 3.203125 -7.546875 L 3.203125 -1.25 L 4.0625 -1.203125 L 4.0625 0 L 0.5 0 L 0.5 -1.140625 L 0.984375 -1.1875 C 1.273438 -1.21875 1.421875 -1.378906 1.421875 -1.671875 L 1.421875 -5.828125 C 1.421875 -6.003906 1.394531 -6.117188 1.34375 -6.171875 C 1.289062 -6.234375 1.191406 -6.265625 1.046875 -6.265625 L 0.53125 -6.296875 L 0.53125 -7.546875 Z M 1.3125 -8.84375 C 1.101562 -9.050781 1 -9.3125 1 -9.625 C 1 -9.945312 1.101562 -10.210938 1.3125 -10.421875 C 1.53125 -10.640625 1.804688 -10.75 2.140625 -10.75 C 2.484375 -10.75 2.757812 -10.640625 2.96875 -10.421875 C 3.1875 -10.210938 3.296875 -9.945312 3.296875 -9.625 C 3.296875 -9.3125 3.1875 -9.050781 2.96875 -8.84375 C 2.757812 -8.632812 2.484375 -8.53125 2.140625 -8.53125 C 1.804688 -8.53125 1.53125 -8.632812 1.3125 -8.84375 Z M 1.3125 -8.84375 "/></g></g></g><g fill="#004aad" fill-opacity="1"><g transform="translate(147.535151, 31.499997)"><g><path d="M 7.234375 -7.25 L 7.234375 -1.671875 C 7.234375 -1.503906 7.257812 -1.390625 7.3125 -1.328125 C 7.363281 -1.273438 7.460938 -1.242188 7.609375 -1.234375 L 8.078125 -1.203125 L 8.078125 0 L 5.703125 0 L 5.703125 -0.875 L 5.65625 -0.890625 C 5.15625 -0.171875 4.46875 0.1875 3.59375 0.1875 C 2.570312 0.1875 1.816406 -0.132812 1.328125 -0.78125 C 0.835938 -1.425781 0.59375 -2.316406 0.59375 -3.453125 C 0.59375 -4.804688 0.921875 -5.863281 1.578125 -6.625 C 2.242188 -7.382812 3.238281 -7.765625 4.5625 -7.765625 C 5.40625 -7.765625 6.296875 -7.59375 7.234375 -7.25 Z M 5.484375 -2.390625 L 5.484375 -6.265625 C 5.203125 -6.398438 4.816406 -6.46875 4.328125 -6.46875 C 3.660156 -6.46875 3.175781 -6.195312 2.875 -5.65625 C 2.582031 -5.113281 2.4375 -4.398438 2.4375 -3.515625 C 2.4375 -1.890625 2.953125 -1.078125 3.984375 -1.078125 C 4.429688 -1.078125 4.789062 -1.207031 5.0625 -1.46875 C 5.34375 -1.738281 5.484375 -2.046875 5.484375 -2.390625 Z M 5.484375 -2.390625 "/></g></g></g><g fill="#004aad" fill-opacity="1"><g transform="translate(156.040148, 31.499997)"><g><path d="M 4.421875 -6.40625 C 4.179688 -6.5 3.890625 -6.546875 3.546875 -6.546875 C 3.210938 -6.546875 2.941406 -6.46875 2.734375 -6.3125 C 2.535156 -6.15625 2.4375 -5.960938 2.4375 -5.734375 C 2.4375 -5.515625 2.472656 -5.34375 2.546875 -5.21875 C 2.617188 -5.09375 2.734375 -4.984375 2.890625 -4.890625 C 3.140625 -4.753906 3.4375 -4.640625 3.78125 -4.546875 C 4.132812 -4.453125 4.394531 -4.378906 4.5625 -4.328125 C 4.738281 -4.273438 4.953125 -4.179688 5.203125 -4.046875 C 5.460938 -3.921875 5.660156 -3.78125 5.796875 -3.625 C 6.140625 -3.257812 6.3125 -2.785156 6.3125 -2.203125 C 6.3125 -1.453125 6.039062 -0.863281 5.5 -0.4375 C 4.957031 -0.0195312 4.265625 0.1875 3.421875 0.1875 C 2.203125 0.1875 1.28125 0.0351562 0.65625 -0.265625 L 0.65625 -2.359375 L 2.015625 -2.453125 L 2.015625 -1.734375 C 2.015625 -1.296875 2.429688 -1.078125 3.265625 -1.078125 C 4.109375 -1.078125 4.53125 -1.382812 4.53125 -2 C 4.53125 -2.21875 4.457031 -2.394531 4.3125 -2.53125 C 4.164062 -2.675781 4.019531 -2.769531 3.875 -2.8125 C 3.738281 -2.863281 3.570312 -2.914062 3.375 -2.96875 C 3.1875 -3.019531 3 -3.066406 2.8125 -3.109375 C 2.625 -3.160156 2.421875 -3.226562 2.203125 -3.3125 C 1.992188 -3.40625 1.757812 -3.53125 1.5 -3.6875 C 0.988281 -4.019531 0.734375 -4.570312 0.734375 -5.34375 C 0.734375 -6.125 1.007812 -6.722656 1.5625 -7.140625 C 2.113281 -7.554688 2.804688 -7.765625 3.640625 -7.765625 C 4.472656 -7.765625 5.300781 -7.566406 6.125 -7.171875 L 6.125 -5.375 L 4.765625 -5.265625 L 4.765625 -5.890625 C 4.765625 -6.140625 4.648438 -6.3125 4.421875 -6.40625 Z M 4.421875 -6.40625 "/></g></g></g><g fill="#004aad" fill-opacity="1"><g transform="translate(162.807565, 31.499997)"><g/></g></g></svg>