<svg xmlns="http://www.w3.org/2000/svg" xmlns:xlink="http://www.w3.org/1999/xlink" width="500" zoomAndPan="magnify" viewBox="0 0 375 374.999991" height="500" preserveAspectRatio="xMidYMid meet" version="1.0"><defs><g/><clipPath id="ca80aaf07d"><path d="M 13.734375 126.695312 L 130.734375 126.695312 L 130.734375 243.695312 L 13.734375 243.695312 Z M 13.734375 126.695312 " clip-rule="nonzero"/></clipPath></defs><g clip-path="url(#ca80aaf07d)"><path fill="#ffffff" d="M 130.320312 241.539062 C 126.46875 239.035156 122.855469 236.285156 119.03125 233.371094 C 110.957031 227.214844 102.605469 220.851562 92.035156 217.175781 C 88.734375 216.03125 82.398438 214.625 77.734375 213.660156 C 90.144531 209.75 100.726562 200.101562 107.359375 194.046875 C 108.523438 192.980469 109.566406 192.03125 110.472656 191.242188 C 112.757812 189.257812 114.554688 187.40625 115.957031 185.640625 C 118.097656 186.945312 123.582031 190.273438 129.003906 193.375 C 129.203125 193.488281 129.417969 193.542969 129.636719 193.542969 C 130.074219 193.542969 130.503906 193.3125 130.738281 192.902344 C 131.085938 192.292969 130.875 191.515625 130.265625 191.167969 C 125.003906 188.160156 119.683594 184.9375 117.449219 183.574219 C 119.761719 179.882812 120.019531 176.636719 118.253906 173.660156 C 117.007812 171.558594 115.761719 170.386719 114.757812 169.710938 C 116.609375 167.441406 116.628906 164.773438 114.777344 161.609375 C 113.867188 160.050781 112.710938 158.445312 111.203125 157.554688 C 112.011719 156.296875 112.347656 154.496094 112.074219 152.460938 C 111.722656 149.832031 110.289062 146.519531 107.324219 145.125 C 106.914062 144.933594 106.429688 144.824219 105.921875 144.746094 C 106.753906 142.832031 107.101562 140.109375 105.398438 137.113281 C 102.023438 131.171875 93.835938 132.324219 88.042969 133.785156 C 86.519531 132 82.230469 127.339844 78.644531 126.984375 C 76.28125 126.746094 73.507812 128.566406 72.265625 129.496094 C 67.640625 127.121094 63.660156 127.683594 62.144531 128.050781 C 59.808594 128.617188 57.542969 130.328125 55.144531 132.136719 C 52.730469 133.960938 50.230469 135.847656 47.972656 136.191406 C 46.101562 136.480469 44.769531 137.273438 44.011719 138.542969 C 43.546875 139.316406 43.390625 140.132812 43.367188 140.84375 C 41.390625 140.515625 38.308594 140.539062 35.832031 143.015625 C 33.917969 144.933594 31.777344 148.242188 32.070312 151.261719 C 32.136719 151.980469 32.359375 152.632812 32.6875 153.230469 C 31.191406 153.742188 29.910156 154.648438 28.972656 156.085938 C 26.863281 159.328125 26.109375 161.820312 26.601562 163.929688 C 26.875 165.117188 27.542969 166.144531 28.601562 167.046875 C 28.496094 167.140625 28.359375 167.199219 28.265625 167.300781 C 26.472656 169.285156 25.5625 172.328125 26.046875 174.703125 C 26.183594 175.363281 26.445312 175.9375 26.78125 176.457031 C 23.417969 179.179688 23.285156 183.625 23.871094 186.398438 L 14.558594 192.535156 C 13.972656 192.921875 13.808594 193.710938 14.195312 194.296875 C 14.441406 194.667969 14.84375 194.867188 15.257812 194.867188 C 15.496094 194.867188 15.742188 194.800781 15.957031 194.660156 L 25.753906 188.199219 C 25.980469 188.109375 26.179688 187.976562 26.316406 187.738281 C 26.328125 187.730469 27.320312 186.835938 31.429688 187.714844 C 34.191406 188.300781 36.5 187.933594 38.308594 186.632812 C 39.996094 185.417969 40.816406 183.667969 41.222656 182.414062 C 42.550781 182.84375 43.765625 183.046875 44.816406 183.046875 C 46.226562 183.046875 47.359375 182.726562 48.136719 182.257812 C 49.136719 181.660156 52.164062 178.300781 51.914062 174.871094 C 51.875 174.347656 51.746094 173.753906 51.46875 173.152344 C 52.742188 172.863281 54.234375 172.132812 55.289062 170.359375 C 57.179688 167.1875 56.988281 164.269531 54.789062 161.53125 C 58.695312 159.707031 59.429688 155.171875 59.214844 152.871094 C 59.148438 152.171875 58.507812 151.660156 57.832031 151.722656 C 57.132812 151.789062 56.617188 152.40625 56.683594 153.105469 C 56.6875 153.15625 57.109375 158.214844 53.183594 159.488281 C 53.082031 159.519531 53 159.585938 52.914062 159.636719 C 52.140625 158.988281 51.289062 158.34375 50.265625 157.710938 C 45.691406 154.878906 40.09375 152.589844 35.566406 152.730469 C 35.019531 152.269531 34.667969 151.722656 34.597656 151.019531 C 34.40625 149.027344 36.035156 146.40625 37.628906 144.8125 C 39.777344 142.664062 42.695312 143.214844 43.863281 143.550781 C 44.765625 146.191406 47.511719 150.238281 52.992188 150.34375 C 53.070312 150.34375 53.144531 150.347656 53.21875 150.347656 C 56.457031 150.34375 58.898438 149.027344 61.058594 147.863281 C 63.6875 146.441406 65.277344 145.6875 67.320312 146.675781 C 67.742188 146.878906 68.25 146.832031 68.625 146.554688 C 68.726562 146.476562 78.84375 139.039062 85.421875 137.136719 C 93.035156 134.933594 100.457031 133.558594 103.191406 138.367188 C 104.976562 141.507812 103.644531 143.902344 103.011719 144.769531 C 98.125 145.402344 91.957031 148.339844 91.058594 148.78125 C 90.425781 149.089844 90.167969 149.847656 90.476562 150.480469 C 90.785156 151.113281 91.542969 151.371094 92.175781 151.0625 C 95.226562 149.574219 100.085938 147.6875 103.414062 147.253906 C 103.644531 147.296875 103.875 147.292969 104.09375 147.207031 C 104.964844 147.148438 105.730469 147.1875 106.238281 147.425781 C 108.285156 148.386719 109.304688 150.921875 109.554688 152.800781 C 109.777344 154.460938 109.464844 155.972656 108.773438 156.558594 C 108.664062 156.652344 108.589844 156.765625 108.519531 156.882812 C 108.011719 156.910156 107.484375 156.996094 106.914062 157.199219 C 104.242188 158.152344 98.40625 161.308594 98.160156 161.445312 C 97.542969 161.777344 97.3125 162.546875 97.648438 163.164062 C 97.980469 163.785156 98.753906 164.007812 99.371094 163.675781 C 99.429688 163.644531 105.28125 160.484375 107.769531 159.59375 C 109.28125 159.050781 110.550781 159.417969 112.585938 162.890625 C 114.289062 165.808594 113.953125 167.582031 111.347656 169.441406 C 108.621094 171.382812 101.5 175.464844 101.425781 175.503906 C 100.816406 175.855469 100.605469 176.628906 100.957031 177.238281 C 101.1875 177.648438 101.617188 177.878906 102.058594 177.878906 C 102.273438 177.878906 102.488281 177.824219 102.6875 177.710938 C 102.984375 177.542969 109.992188 173.527344 112.824219 171.511719 C 113.453125 171.8125 114.699219 172.652344 116.070312 174.957031 C 117.539062 177.433594 118.042969 181.304688 108.804688 189.324219 C 107.886719 190.121094 106.828125 191.089844 105.644531 192.167969 C 98.328125 198.847656 86.085938 210.03125 72.230469 212.402344 C 72.035156 212.433594 71.84375 212.492188 71.652344 212.53125 C 71.570312 212.539062 71.492188 212.554688 71.417969 212.582031 C 63.605469 214.128906 55.976562 218.601562 47.183594 223.789062 C 37.988281 229.21875 27.558594 235.371094 14.898438 239.121094 C 14.222656 239.320312 13.839844 240.027344 14.039062 240.699219 C 14.203125 241.253906 14.707031 241.609375 15.257812 241.609375 C 15.375 241.609375 15.496094 241.59375 15.617188 241.558594 C 28.578125 237.722656 39.152344 231.484375 48.476562 225.980469 C 57.050781 220.917969 64.496094 216.554688 71.867188 215.082031 C 73.890625 215.46875 86.300781 217.875 91.199219 219.578125 C 101.386719 223.121094 109.574219 229.359375 117.492188 235.390625 C 121.183594 238.207031 125.003906 241.117188 128.933594 243.671875 C 129.148438 243.8125 129.390625 243.875 129.628906 243.875 C 130.042969 243.875 130.449219 243.671875 130.691406 243.296875 C 131.074219 242.710938 130.910156 241.921875 130.320312 241.539062 Z M 36.808594 184.582031 C 35.605469 185.4375 33.972656 185.65625 31.960938 185.226562 C 29.199219 184.640625 27.394531 184.722656 26.222656 185.035156 C 25.992188 183.132812 26.105469 179.972656 28.730469 178.152344 C 28.796875 178.179688 28.859375 178.203125 28.925781 178.21875 C 28.984375 178.234375 35.105469 179.660156 38.859375 181.460938 C 38.597656 182.351562 38.023438 183.714844 36.808594 184.582031 Z M 46.832031 180.078125 C 45.992188 180.582031 43.636719 180.976562 40.152344 179.257812 C 36.429688 177.429688 30.644531 176.015625 29.640625 175.777344 C 29.054688 175.472656 28.691406 174.953125 28.539062 174.191406 C 28.210938 172.613281 28.90625 170.382812 30.152344 169.007812 C 30.691406 168.40625 33.527344 166.886719 47.078125 172.519531 C 49.230469 173.414062 49.339844 174.617188 49.375 175.011719 C 49.558594 177.070312 47.433594 179.6875 46.832031 180.078125 Z M 48.925781 159.871094 C 55.980469 164.238281 54.039062 167.492188 53.105469 169.058594 C 51.855469 171.152344 49.484375 170.773438 49.386719 170.757812 L 49.367188 170.867188 C 48.984375 170.621094 48.5625 170.382812 48.054688 170.171875 C 40.015625 166.832031 34.535156 165.457031 31.191406 165.949219 L 31.257812 165.839844 C 29.988281 165.082031 29.292969 164.292969 29.078125 163.355469 C 28.757812 161.984375 29.421875 160.058594 31.105469 157.472656 C 33.855469 153.246094 42.269531 155.75 48.925781 159.871094 Z M 67.703125 144.082031 C 64.730469 143.003906 62.246094 144.332031 59.851562 145.628906 C 57.820312 146.722656 55.597656 147.832031 53.042969 147.800781 C 47.542969 147.699219 46.164062 142.464844 46.070312 142.117188 C 46.066406 142.105469 45.632812 140.785156 46.195312 139.84375 C 46.542969 139.257812 47.273438 138.871094 48.359375 138.707031 C 51.253906 138.261719 54.011719 136.179688 56.675781 134.167969 C 58.859375 132.519531 60.917969 130.964844 62.742188 130.519531 C 63.363281 130.371094 64.230469 130.226562 65.28125 130.226562 C 68.410156 130.226562 73.160156 131.507812 77.8125 137.699219 C 73.390625 140.082031 69.21875 142.996094 67.703125 144.082031 Z M 80.085938 136.535156 C 80.050781 136.460938 80.007812 136.386719 79.957031 136.320312 C 78.195312 133.945312 76.386719 132.214844 74.625 130.941406 C 75.851562 130.152344 77.359375 129.421875 78.394531 129.511719 C 80.304688 129.703125 83.230469 132.28125 85.300781 134.527344 C 85.105469 134.585938 84.898438 134.644531 84.714844 134.695312 C 83.265625 135.113281 81.6875 135.765625 80.085938 136.535156 Z M 80.085938 136.535156 " fill-opacity="1" fill-rule="nonzero"/></g><g fill="#ffffff" fill-opacity="1"><g transform="translate(194.425228, 172.46627)"><g><path d="M 11.40625 -30.59375 L 19.234375 -9.796875 L 19.328125 -9.796875 L 27.1875 -30.59375 L 36.3125 -30.59375 L 36.3125 -26.875 L 34.78125 -26.734375 C 33.863281 -26.640625 33.421875 -26.101562 33.453125 -25.125 L 34.609375 -4.046875 L 37.453125 -3.90625 L 37.453125 0 L 26.359375 0 L 26.359375 -3.734375 L 28.03125 -3.859375 C 28.851562 -3.921875 29.25 -4.320312 29.21875 -5.0625 L 28.34375 -21.3125 L 28.25 -21.3125 L 21.171875 -2.9375 L 16.796875 -2.9375 L 9.796875 -21.125 L 9.703125 -21.125 L 8.78125 -4.046875 L 11.78125 -3.90625 L 11.78125 0 L 0.921875 0 L 0.921875 -3.734375 L 2.578125 -3.859375 C 3.285156 -3.921875 3.671875 -4.335938 3.734375 -5.109375 L 4.96875 -26.5 L 2.15625 -26.6875 L 2.15625 -30.59375 Z M 11.40625 -30.59375 "/></g></g></g><g fill="#ffffff" fill-opacity="1"><g transform="translate(232.801743, 172.46627)"><g><path d="M 22.171875 -22.21875 L 22.171875 -5.109375 C 22.171875 -4.617188 22.253906 -4.28125 22.421875 -4.09375 C 22.597656 -3.90625 22.898438 -3.796875 23.328125 -3.765625 L 24.796875 -3.6875 L 24.796875 0 L 17.484375 0 L 17.484375 -2.671875 L 17.34375 -2.71875 C 15.8125 -0.507812 13.710938 0.59375 11.046875 0.59375 C 7.910156 0.59375 5.59375 -0.398438 4.09375 -2.390625 C 2.59375 -4.390625 1.84375 -7.117188 1.84375 -10.578125 C 1.84375 -14.753906 2.851562 -18.007812 4.875 -20.34375 C 6.90625 -22.675781 9.941406 -23.84375 13.984375 -23.84375 C 16.597656 -23.84375 19.328125 -23.300781 22.171875 -22.21875 Z M 16.84375 -7.3125 L 16.84375 -19.234375 C 15.976562 -19.628906 14.796875 -19.828125 13.296875 -19.828125 C 11.242188 -19.828125 9.753906 -19 8.828125 -17.34375 C 7.910156 -15.6875 7.453125 -13.492188 7.453125 -10.765625 C 7.453125 -5.796875 9.046875 -3.3125 12.234375 -3.3125 C 13.585938 -3.3125 14.691406 -3.71875 15.546875 -4.53125 C 16.410156 -5.34375 16.84375 -6.269531 16.84375 -7.3125 Z M 8.046875 -27.421875 L 5.84375 -29.03125 C 6.945312 -31.457031 8.507812 -32.671875 10.53125 -32.671875 C 11.269531 -32.671875 12.34375 -32.453125 13.75 -32.015625 C 15.164062 -31.585938 16.203125 -31.375 16.859375 -31.375 C 17.523438 -31.375 18.148438 -31.867188 18.734375 -32.859375 L 21.21875 -31.515625 C 20.195312 -28.847656 18.613281 -27.515625 16.46875 -27.515625 C 15.800781 -27.515625 14.789062 -27.722656 13.4375 -28.140625 C 12.082031 -28.554688 11.132812 -28.765625 10.59375 -28.765625 C 10.0625 -28.765625 9.625 -28.675781 9.28125 -28.5 C 8.945312 -28.332031 8.535156 -27.972656 8.046875 -27.421875 Z M 8.046875 -27.421875 "/></g></g></g><g fill="#ffffff" fill-opacity="1"><g transform="translate(258.892249, 172.46627)"><g><path d="M 12.109375 -3.359375 C 15.453125 -3.359375 17.125 -6.054688 17.125 -11.453125 C 17.125 -14.179688 16.742188 -16.25 15.984375 -17.65625 C 15.234375 -19.070312 13.976562 -19.78125 12.21875 -19.78125 C 10.457031 -19.78125 9.160156 -19.101562 8.328125 -17.75 C 7.503906 -16.40625 7.09375 -14.566406 7.09375 -12.234375 C 7.09375 -7.910156 7.890625 -5.195312 9.484375 -4.09375 C 10.179688 -3.601562 11.054688 -3.359375 12.109375 -3.359375 Z M 1.515625 -11.59375 C 1.515625 -13.863281 1.851562 -15.832031 2.53125 -17.5 C 3.207031 -19.175781 4.113281 -20.457031 5.25 -21.34375 C 7.425781 -23.007812 9.832031 -23.84375 12.46875 -23.84375 C 14.3125 -23.84375 15.867188 -23.539062 17.140625 -22.9375 C 18.410156 -22.34375 19.40625 -21.648438 20.125 -20.859375 C 20.851562 -20.078125 21.46875 -18.941406 21.96875 -17.453125 C 22.476562 -15.972656 22.734375 -14.21875 22.734375 -12.1875 C 22.734375 -7.957031 21.703125 -4.753906 19.640625 -2.578125 C 17.585938 -0.398438 14.957031 0.6875 11.75 0.6875 C 8.550781 0.6875 6.046875 -0.34375 4.234375 -2.40625 C 2.421875 -4.476562 1.515625 -7.539062 1.515625 -11.59375 Z M 1.515625 -11.59375 "/></g></g></g><g fill="#ffffff" fill-opacity="1"><g transform="translate(283.188176, 172.46627)"><g><path d="M 13.578125 -19.65625 C 12.835938 -19.925781 11.945312 -20.0625 10.90625 -20.0625 C 9.863281 -20.0625 9.023438 -19.820312 8.390625 -19.34375 C 7.765625 -18.875 7.453125 -18.289062 7.453125 -17.59375 C 7.453125 -16.90625 7.566406 -16.367188 7.796875 -15.984375 C 8.023438 -15.609375 8.382812 -15.28125 8.875 -15 C 9.644531 -14.601562 10.566406 -14.257812 11.640625 -13.96875 C 12.710938 -13.675781 13.507812 -13.441406 14.03125 -13.265625 C 14.550781 -13.097656 15.203125 -12.816406 15.984375 -12.421875 C 16.765625 -12.023438 17.359375 -11.597656 17.765625 -11.140625 C 18.835938 -10.003906 19.375 -8.546875 19.375 -6.765625 C 19.375 -4.460938 18.535156 -2.660156 16.859375 -1.359375 C 15.191406 -0.0546875 13.066406 0.59375 10.484375 0.59375 C 6.742188 0.59375 3.925781 0.117188 2.03125 -0.828125 L 2.03125 -7.21875 L 6.171875 -7.546875 L 6.171875 -5.34375 C 6.171875 -3.988281 7.457031 -3.3125 10.03125 -3.3125 C 12.601562 -3.3125 13.890625 -4.25 13.890625 -6.125 C 13.890625 -6.789062 13.664062 -7.335938 13.21875 -7.765625 C 12.78125 -8.203125 12.347656 -8.492188 11.921875 -8.640625 C 11.492188 -8.796875 10.976562 -8.953125 10.375 -9.109375 C 9.78125 -9.265625 9.195312 -9.414062 8.625 -9.5625 C 8.0625 -9.71875 7.445312 -9.925781 6.78125 -10.1875 C 6.125 -10.445312 5.398438 -10.820312 4.609375 -11.3125 C 3.035156 -12.332031 2.25 -14.03125 2.25 -16.40625 C 2.25 -18.78125 3.09375 -20.613281 4.78125 -21.90625 C 6.46875 -23.195312 8.59375 -23.84375 11.15625 -23.84375 C 13.71875 -23.84375 16.257812 -23.226562 18.78125 -22 L 18.78125 -16.46875 L 14.640625 -16.15625 L 14.640625 -18.078125 C 14.640625 -18.847656 14.285156 -19.375 13.578125 -19.65625 Z M 13.578125 -19.65625 "/></g></g></g><g fill="#ffffff" fill-opacity="1"><g transform="translate(303.945981, 172.46627)"><g/></g></g><g fill="#ffffff" fill-opacity="1"><g transform="translate(148.985923, 236.831938)"><g><path d="M 11.09375 -4.140625 C 14.769531 -4.140625 16.609375 -5.613281 16.609375 -8.5625 C 16.609375 -10.09375 15.796875 -11.226562 14.171875 -11.96875 C 13.316406 -12.394531 12.203125 -12.789062 10.828125 -13.15625 C 9.460938 -13.53125 8.328125 -13.90625 7.421875 -14.28125 C 6.523438 -14.664062 5.613281 -15.195312 4.6875 -15.875 C 2.882812 -17.226562 1.984375 -19.304688 1.984375 -22.109375 C 1.984375 -24.921875 2.957031 -27.128906 4.90625 -28.734375 C 6.851562 -30.347656 9.394531 -31.15625 12.53125 -31.15625 C 15.675781 -31.15625 18.601562 -30.523438 21.3125 -29.265625 L 21.3125 -22.359375 L 16.609375 -22.046875 L 16.609375 -24.703125 C 16.609375 -25.171875 16.546875 -25.507812 16.421875 -25.71875 C 16.085938 -26.300781 15.007812 -26.59375 13.1875 -26.59375 C 11.363281 -26.59375 10.015625 -26.269531 9.140625 -25.625 C 8.265625 -24.988281 7.828125 -23.992188 7.828125 -22.640625 C 7.828125 -21.660156 8.191406 -20.800781 8.921875 -20.0625 C 9.410156 -19.570312 10.140625 -19.164062 11.109375 -18.84375 C 12.078125 -18.519531 13.101562 -18.1875 14.1875 -17.84375 C 15.28125 -17.507812 16.25 -17.144531 17.09375 -16.75 C 17.9375 -16.351562 18.816406 -15.800781 19.734375 -15.09375 C 21.609375 -13.707031 22.546875 -11.570312 22.546875 -8.6875 C 22.546875 -5.8125 21.507812 -3.546875 19.4375 -1.890625 C 17.363281 -0.234375 14.632812 0.59375 11.25 0.59375 C 7.863281 0.59375 4.816406 -0.03125 2.109375 -1.28125 L 2.109375 -8.5625 L 6.8125 -8.875 L 6.8125 -6.078125 C 6.8125 -5.617188 6.867188 -5.28125 6.984375 -5.0625 C 7.109375 -4.84375 7.484375 -4.632812 8.109375 -4.4375 C 8.742188 -4.238281 9.738281 -4.140625 11.09375 -4.140625 Z M 11.09375 -4.140625 "/></g></g></g><g fill="#ffffff" fill-opacity="1"><g transform="translate(173.005754, 236.831938)"><g><path d="M 12.109375 -3.359375 C 15.453125 -3.359375 17.125 -6.054688 17.125 -11.453125 C 17.125 -14.179688 16.742188 -16.25 15.984375 -17.65625 C 15.234375 -19.070312 13.976562 -19.78125 12.21875 -19.78125 C 10.457031 -19.78125 9.160156 -19.101562 8.328125 -17.75 C 7.503906 -16.40625 7.09375 -14.566406 7.09375 -12.234375 C 7.09375 -7.910156 7.890625 -5.195312 9.484375 -4.09375 C 10.179688 -3.601562 11.054688 -3.359375 12.109375 -3.359375 Z M 1.515625 -11.59375 C 1.515625 -13.863281 1.851562 -15.832031 2.53125 -17.5 C 3.207031 -19.175781 4.113281 -20.457031 5.25 -21.34375 C 7.425781 -23.007812 9.832031 -23.84375 12.46875 -23.84375 C 14.3125 -23.84375 15.867188 -23.539062 17.140625 -22.9375 C 18.410156 -22.34375 19.40625 -21.648438 20.125 -20.859375 C 20.851562 -20.078125 21.46875 -18.941406 21.96875 -17.453125 C 22.476562 -15.972656 22.734375 -14.21875 22.734375 -12.1875 C 22.734375 -7.957031 21.703125 -4.753906 19.640625 -2.578125 C 17.585938 -0.398438 14.957031 0.6875 11.75 0.6875 C 8.550781 0.6875 6.046875 -0.34375 4.234375 -2.40625 C 2.421875 -4.476562 1.515625 -7.539062 1.515625 -11.59375 Z M 1.515625 -11.59375 "/></g></g></g><g fill="#ffffff" fill-opacity="1"><g transform="translate(197.30168, 236.831938)"><g><path d="M 9.75 -32.8125 L 9.75 -3.8125 L 12.375 -3.6875 L 12.375 0 L 1.421875 0 L 1.421875 -3.5 L 2.9375 -3.640625 C 3.832031 -3.722656 4.28125 -4.210938 4.28125 -5.109375 L 4.28125 -27.796875 C 4.28125 -28.472656 3.894531 -28.835938 3.125 -28.890625 L 1.515625 -28.984375 L 1.515625 -32.8125 Z M 9.75 -32.8125 "/></g></g></g><g fill="#ffffff" fill-opacity="1"><g transform="translate(211.01415, 236.831938)"><g><path d="M 9.84375 -23.140625 L 9.84375 -3.8125 L 12.46875 -3.6875 L 12.46875 0 L 1.515625 0 L 1.515625 -3.5 L 3.03125 -3.640625 C 3.925781 -3.722656 4.375 -4.210938 4.375 -5.109375 L 4.375 -17.90625 C 4.375 -18.425781 4.285156 -18.773438 4.109375 -18.953125 C 3.941406 -19.140625 3.644531 -19.234375 3.21875 -19.234375 L 1.609375 -19.328125 L 1.609375 -23.140625 Z M 4.046875 -27.125 C 3.398438 -27.75 3.078125 -28.550781 3.078125 -29.53125 C 3.078125 -30.519531 3.398438 -31.34375 4.046875 -32 C 4.691406 -32.664062 5.535156 -33 6.578125 -33 C 7.617188 -33 8.46875 -32.664062 9.125 -32 C 9.789062 -31.34375 10.125 -30.519531 10.125 -29.53125 C 10.125 -28.550781 9.789062 -27.75 9.125 -27.125 C 8.46875 -26.5 7.617188 -26.1875 6.578125 -26.1875 C 5.535156 -26.1875 4.691406 -26.5 4.046875 -27.125 Z M 4.046875 -27.125 "/></g></g></g><g fill="#ffffff" fill-opacity="1"><g transform="translate(224.63459, 236.831938)"><g><path d="M 13.0625 -23.84375 C 14.382812 -23.84375 15.644531 -23.65625 16.84375 -23.28125 L 16.84375 -27.9375 C 16.84375 -28.601562 16.441406 -28.96875 15.640625 -29.03125 L 13.671875 -29.171875 L 13.671875 -32.8125 L 22.21875 -32.8125 L 22.21875 -4.828125 C 22.25 -4.117188 22.632812 -3.765625 23.375 -3.765625 L 24.984375 -3.6875 L 24.984375 0 L 17.53125 0 L 17.53125 -2.71875 L 17.390625 -2.765625 C 16.015625 -0.523438 13.929688 0.59375 11.140625 0.59375 C 7.640625 0.59375 5.179688 -0.570312 3.765625 -2.90625 C 2.484375 -5.019531 1.84375 -7.609375 1.84375 -10.671875 C 1.84375 -14.660156 2.832031 -17.851562 4.8125 -20.25 C 6.789062 -22.644531 9.539062 -23.84375 13.0625 -23.84375 Z M 16.84375 -7.171875 L 16.84375 -19.09375 C 15.738281 -19.582031 14.570312 -19.828125 13.34375 -19.828125 C 11.320312 -19.828125 9.84375 -19.015625 8.90625 -17.390625 C 7.96875 -15.765625 7.5 -13.695312 7.5 -11.1875 C 7.5 -6.03125 9.15625 -3.453125 12.46875 -3.453125 C 13.726562 -3.453125 14.769531 -3.8125 15.59375 -4.53125 C 16.425781 -5.25 16.84375 -6.128906 16.84375 -7.171875 Z M 16.84375 -7.171875 "/></g></g></g><g fill="#ffffff" fill-opacity="1"><g transform="translate(250.771116, 236.831938)"><g><path d="M 22.171875 -22.21875 L 22.171875 -5.109375 C 22.171875 -4.617188 22.253906 -4.28125 22.421875 -4.09375 C 22.597656 -3.90625 22.898438 -3.796875 23.328125 -3.765625 L 24.796875 -3.6875 L 24.796875 0 L 17.484375 0 L 17.484375 -2.671875 L 17.34375 -2.71875 C 15.8125 -0.507812 13.710938 0.59375 11.046875 0.59375 C 7.910156 0.59375 5.59375 -0.398438 4.09375 -2.390625 C 2.59375 -4.390625 1.84375 -7.117188 1.84375 -10.578125 C 1.84375 -14.753906 2.851562 -18.007812 4.875 -20.34375 C 6.90625 -22.675781 9.941406 -23.84375 13.984375 -23.84375 C 16.597656 -23.84375 19.328125 -23.300781 22.171875 -22.21875 Z M 16.84375 -7.3125 L 16.84375 -19.234375 C 15.976562 -19.628906 14.796875 -19.828125 13.296875 -19.828125 C 11.242188 -19.828125 9.753906 -19 8.828125 -17.34375 C 7.910156 -15.6875 7.453125 -13.492188 7.453125 -10.765625 C 7.453125 -5.796875 9.046875 -3.3125 12.234375 -3.3125 C 13.585938 -3.3125 14.691406 -3.71875 15.546875 -4.53125 C 16.410156 -5.34375 16.84375 -6.269531 16.84375 -7.3125 Z M 9.84375 -27.328125 L 15.1875 -36.171875 L 17.34375 -35.15625 C 18.238281 -34.664062 18.6875 -34.113281 18.6875 -33.5 C 18.6875 -32.882812 18.300781 -32.222656 17.53125 -31.515625 L 11.640625 -25.8125 Z M 9.84375 -27.328125 "/></g></g></g><g fill="#ffffff" fill-opacity="1"><g transform="translate(276.86163, 236.831938)"><g><path d="M 4.375 -5.15625 L 4.375 -17.90625 C 4.375 -18.394531 4.285156 -18.738281 4.109375 -18.9375 C 3.941406 -19.132812 3.644531 -19.25 3.21875 -19.28125 L 1.28125 -19.421875 L 1.28125 -23.140625 L 9.0625 -23.140625 L 9.0625 -19.6875 C 9.613281 -20.882812 10.472656 -21.875 11.640625 -22.65625 C 12.804688 -23.445312 14.148438 -23.84375 15.671875 -23.84375 C 17.191406 -23.84375 18.640625 -23.503906 20.015625 -22.828125 L 20.015625 -15.96875 L 15.734375 -15.640625 L 15.734375 -17.765625 C 15.734375 -18.378906 15.582031 -18.757812 15.28125 -18.90625 C 14.9375 -19.0625 14.519531 -19.140625 14.03125 -19.140625 C 12.800781 -19.140625 11.796875 -18.703125 11.015625 -17.828125 C 10.234375 -16.953125 9.84375 -15.84375 9.84375 -14.5 L 9.84375 -3.8125 L 13.84375 -3.640625 L 13.84375 0 L 1.515625 0 L 1.515625 -3.5 L 3.03125 -3.640625 C 3.5 -3.703125 3.835938 -3.832031 4.046875 -4.03125 C 4.265625 -4.226562 4.375 -4.601562 4.375 -5.15625 Z M 4.375 -5.15625 "/></g></g></g><g fill="#ffffff" fill-opacity="1"><g transform="translate(298.120567, 236.831938)"><g><path d="M 9.84375 -23.140625 L 9.84375 -3.8125 L 12.46875 -3.6875 L 12.46875 0 L 1.515625 0 L 1.515625 -3.5 L 3.03125 -3.640625 C 3.925781 -3.722656 4.375 -4.210938 4.375 -5.109375 L 4.375 -17.90625 C 4.375 -18.425781 4.285156 -18.773438 4.109375 -18.953125 C 3.941406 -19.140625 3.644531 -19.234375 3.21875 -19.234375 L 1.609375 -19.328125 L 1.609375 -23.140625 Z M 4.046875 -27.125 C 3.398438 -27.75 3.078125 -28.550781 3.078125 -29.53125 C 3.078125 -30.519531 3.398438 -31.34375 4.046875 -32 C 4.691406 -32.664062 5.535156 -33 6.578125 -33 C 7.617188 -33 8.46875 -32.664062 9.125 -32 C 9.789062 -31.34375 10.125 -30.519531 10.125 -29.53125 C 10.125 -28.550781 9.789062 -27.75 9.125 -27.125 C 8.46875 -26.5 7.617188 -26.1875 6.578125 -26.1875 C 5.535156 -26.1875 4.691406 -26.5 4.046875 -27.125 Z M 4.046875 -27.125 "/></g></g></g><g fill="#ffffff" fill-opacity="1"><g transform="translate(311.740999, 236.831938)"><g><path d="M 22.171875 -22.21875 L 22.171875 -5.109375 C 22.171875 -4.617188 22.253906 -4.28125 22.421875 -4.09375 C 22.597656 -3.90625 22.898438 -3.796875 23.328125 -3.765625 L 24.796875 -3.6875 L 24.796875 0 L 17.484375 0 L 17.484375 -2.671875 L 17.34375 -2.71875 C 15.8125 -0.507812 13.710938 0.59375 11.046875 0.59375 C 7.910156 0.59375 5.59375 -0.398438 4.09375 -2.390625 C 2.59375 -4.390625 1.84375 -7.117188 1.84375 -10.578125 C 1.84375 -14.753906 2.851562 -18.007812 4.875 -20.34375 C 6.90625 -22.675781 9.941406 -23.84375 13.984375 -23.84375 C 16.597656 -23.84375 19.328125 -23.300781 22.171875 -22.21875 Z M 16.84375 -7.3125 L 16.84375 -19.234375 C 15.976562 -19.628906 14.796875 -19.828125 13.296875 -19.828125 C 11.242188 -19.828125 9.753906 -19 8.828125 -17.34375 C 7.910156 -15.6875 7.453125 -13.492188 7.453125 -10.765625 C 7.453125 -5.796875 9.046875 -3.3125 12.234375 -3.3125 C 13.585938 -3.3125 14.691406 -3.71875 15.546875 -4.53125 C 16.410156 -5.34375 16.84375 -6.269531 16.84375 -7.3125 Z M 16.84375 -7.3125 "/></g></g></g><g fill="#ffffff" fill-opacity="1"><g transform="translate(337.831506, 236.831938)"><g><path d="M 13.578125 -19.65625 C 12.835938 -19.925781 11.945312 -20.0625 10.90625 -20.0625 C 9.863281 -20.0625 9.023438 -19.820312 8.390625 -19.34375 C 7.765625 -18.875 7.453125 -18.289062 7.453125 -17.59375 C 7.453125 -16.90625 7.566406 -16.367188 7.796875 -15.984375 C 8.023438 -15.609375 8.382812 -15.28125 8.875 -15 C 9.644531 -14.601562 10.566406 -14.257812 11.640625 -13.96875 C 12.710938 -13.675781 13.507812 -13.441406 14.03125 -13.265625 C 14.550781 -13.097656 15.203125 -12.816406 15.984375 -12.421875 C 16.765625 -12.023438 17.359375 -11.597656 17.765625 -11.140625 C 18.835938 -10.003906 19.375 -8.546875 19.375 -6.765625 C 19.375 -4.460938 18.535156 -2.660156 16.859375 -1.359375 C 15.191406 -0.0546875 13.066406 0.59375 10.484375 0.59375 C 6.742188 0.59375 3.925781 0.117188 2.03125 -0.828125 L 2.03125 -7.21875 L 6.171875 -7.546875 L 6.171875 -5.34375 C 6.171875 -3.988281 7.457031 -3.3125 10.03125 -3.3125 C 12.601562 -3.3125 13.890625 -4.25 13.890625 -6.125 C 13.890625 -6.789062 13.664062 -7.335938 13.21875 -7.765625 C 12.78125 -8.203125 12.347656 -8.492188 11.921875 -8.640625 C 11.492188 -8.796875 10.976562 -8.953125 10.375 -9.109375 C 9.78125 -9.265625 9.195312 -9.414062 8.625 -9.5625 C 8.0625 -9.71875 7.445312 -9.925781 6.78125 -10.1875 C 6.125 -10.445312 5.398438 -10.820312 4.609375 -11.3125 C 3.035156 -12.332031 2.25 -14.03125 2.25 -16.40625 C 2.25 -18.78125 3.09375 -20.613281 4.78125 -21.90625 C 6.46875 -23.195312 8.59375 -23.84375 11.15625 -23.84375 C 13.71875 -23.84375 16.257812 -23.226562 18.78125 -22 L 18.78125 -16.46875 L 14.640625 -16.15625 L 14.640625 -18.078125 C 14.640625 -18.847656 14.285156 -19.375 13.578125 -19.65625 Z M 13.578125 -19.65625 "/></g></g></g></svg>